<svg id="Layer_1" data-name="Layer 1" xmlns="http://www.w3.org/2000/svg" width="256" height="256" viewBox="0 0 256 256"><title>icon</title><circle cx="128" cy="128" r="124" fill="#c2bfbc"/><path d="M62.1,144.7c0-5.1-3.5-10-18.8-10.1v-6.7c15.3-.1,18.8-5.1,18.8-10.1,0-8.2-1.2-16.1-1.2-25,0-13.3,7.6-17.2,24-17.2h7.9v6.2H86.1C72.9,81.7,70,84.9,70,93.4s.8,15.4.8,23.5S67.9,129.4,59,130.9v.5c8.9,1.6,11.8,5.7,11.8,14.1S70,161.1,70,169s2.9,11.7,16.1,11.7h6.7v6.2H84.9c-16.3,0-24-3.9-24-17.2C60.9,160.2,62.1,153.4,62.1,144.7Z" fill="#333" stroke="#333" stroke-linecap="round" stroke-linejoin="round" stroke-width="3"/><path d="M92.5,104.1c0-13.5,7.6-21.1,18.1-21.1s18,7.6,18,21.1-7.6,21.5-18,21.5S92.5,117.6,92.5,104.1Zm.4,53.1,23.7-24.4,4.1,3.9L99.1,163.1Zm27.7-53.1c0-10.4-4.4-14.6-10-14.6s-10.1,4.3-10.1,14.6,4.4,15.2,10.1,15.2S120.6,114.2,120.6,104.1Zm6.7,43c0-13.3,7.6-21,18-21s18.1,7.6,18.1,21-7.6,21.6-18.1,21.6S127.4,160.7,127.4,147.1Zm35.9-54.9-23.7,24.4-4.3-3.9L157,86.4Zm-7.8,54.9c0-10.2-4.4-14.6-10.1-14.6s-10,4.4-10,14.6,4.4,15.2,10,15.2S155.5,157.4,155.5,147.1Z" fill="#333" stroke="#333" stroke-linecap="round" stroke-linejoin="round" stroke-width="3"/><path d="M169.9,180.7c13.2,0,16.2-3.2,16.2-11.7s-.8-14.6-.8-23.5,2.7-12.6,11.7-14.1v-.5c-8.9-1.6-11.7-5.7-11.7-14.1s.8-16.1.8-23.5-3-11.7-16.2-11.7h-6.6V75.5h7.9c16.2,0,23.8,3.9,23.8,17.2,0,8.9-1.2,16.8-1.2,25,0,5.1,3.5,10,18.8,10.1v6.7c-15.3.1-18.8,5.1-18.8,10.1,0,8.7,1.2,15.5,1.2,25,0,13.3-7.6,17.2-23.8,17.2h-7.9v-6.2Z" fill="#333" stroke="#333" stroke-linecap="round" stroke-linejoin="round" stroke-width="3"/></svg>