<svg xmlns="http://www.w3.org/2000/svg" width="256" height="256" viewBox="0 0 256 256"><defs><style>.a{fill:#c2bfbc;}.b{fill:#333;}</style></defs><title>icon</title><circle class="a" cx="128" cy="128" r="124"/><path class="b" d="M77.6 100.4l-10.4-10.3a5 5 0 0 0-7 7.1l11.9 11.2c.9.9 2.2.7 3.5.7h9.7a64 64 0 0 0-13.1 29.3h-16.9a5.2 5.2 0 0 0 0 10.3h16.1a52 52 0 0 0 6.1 24.1h-3.6a5.2 5.2 0 0 0-3.5 1.7l-11.9 12a5 5 0 0 0 0 7.1 4.9 4.9 0 0 0 7 0l10.5-10.4h8a57.4 57.4 0 0 0 40.6 20.8v-103.6h-47zM200.7 138.4h-17.2c-2.1-10.3-7.6-20.7-14.1-29.3h11c1.3 0 2.6.2 3.5-.7l11.9-11.5a4.7 4.7 0 0 0 0-6.8 5 5 0 0 0-7 0l-10.4 10.4h-47v103.5c15.5-1 30.5-10.4 40.3-20.8h8.3l10.4 10.4a4.9 4.9 0 1 0 7-7l-11.9-12.1a5.2 5.2 0 0 0-3.5-1.7h-3.8a51.5 51.5 0 0 0 6.2-24.1h16.2a5.2 5.2 0 0 0 .1-10.3zM96 93.5h64c0-12.1-6-21.2-15-26.8l6.5-6.3a4.9 4.9 0 0 0 0-6.9 5 5 0 0 0-7 0l-9.4 9.4a31.4 31.4 0 0 0-14.3 0l-9.4-9.4a5 5 0 1 0-7 7l6.5 6.2c-9 5.7-14.9 14.8-14.9 26.8z"/></svg>