<svg xmlns="http://www.w3.org/2000/svg" width="256" height="256" viewBox="0 0 256 256"><title>license</title><circle cx="128" cy="128" r="124" fill="#c2bfbc"/><path d="M128,54.7c33.4,0,59,27.5,59,72.1s-25.6,73-59,73-59-28.4-59-73S94.6,54.7,128,54.7Zm0,136c29.3,0,49-25.6,49-63.8s-19.7-63.2-49-63.2S79,88.6,79,126.8,98.7,190.7,128,190.7Zm2.4-105.1c10.3,0,17.1,4.4,22.7,10.3l-7.4,8.5c-4.6-4.2-8.7-6.8-14.6-6.8-13.3,0-22.3,12.2-22.3,29.3,0,19.2,8.5,31.3,21.4,31.3,7.7,0,12.7-3.3,17.7-7.4l6.6,9.2c-6.6,5.9-13.8,10.3-24.7,10.3-19.7,0-35.4-16.2-35.4-43.3C94.3,101.5,111.4,85.5,130.4,85.5Z" fill="#333" stroke="#333" stroke-linecap="round" stroke-linejoin="round" stroke-width="3"/></svg>