<svg xmlns="http://www.w3.org/2000/svg" width="256" height="256" viewBox="0 0 256 256"><style type="text/css">.st0{fill:#D1FFF5;} .st1{fill:#00675A;} .st2{fill:#FFFFFF;} .st3{fill:#63666A;}</style><path class="st0" d="M18 222v-160c0-5.5 4.7-9 10.6-9h83c5.3 0 10.4 3.1 10.4 9v9c0 4.1 3.9 8 8 8h106v143h-218z"/><path class="st1" d="M111.8 60c1.7 0 3.2 1 3.2 2v9c0 8.3 6.7 15 15 15h99v128h-203v-152c0-1.7 1.4-2 2.6-2h83.4m-.4-15h-83c-9.8 0-17.6 7.2-17.6 17v164.9c0 1.6 1.1 2.1 2.7 2.1h227.7c1.6 0 2.7-.5 2.7-2.1v-153.1c0-1.6-1.1-2.8-2.7-2.8h-111.4v-9c0-9.8-8.6-17-18.4-17z"/></svg>