<svg xmlns="http://www.w3.org/2000/svg" width="256" height="256" viewBox="0 0 256 256"><style type="text/css">.st0{fill:#C2BFBC;} .st1{fill:#333333;stroke:#333333;stroke-width:3;stroke-linecap:round;stroke-linejoin:round;stroke-miterlimit:10;}</style><circle class="st0" cx="128" cy="128" r="124"/><path class="st1" d="M73.6 142.9c5.8 0 10.5 4.4 10.5 11 0 6.5-4.7 10.9-10.5 10.9s-10.5-4.4-10.5-10.9c.1-6.6 4.7-11 10.5-11zM126.3 142.9c5.8 0 10.5 4.4 10.5 11 0 6.5-4.7 10.9-10.5 10.9s-10.5-4.4-10.5-10.9c0-6.6 4.7-11 10.5-11zM165.9 184h-9.6l42.5-112.7h9.6l-42.5 112.7z"/></svg>