<svg id="Layer_1" data-name="Layer 1" xmlns="http://www.w3.org/2000/svg" width="256" height="256" viewBox="0 0 256 256"><title>icon</title><circle cx="128" cy="128" r="124" fill="#c2bfbc"/><path d="M19.6,126l26.1-17.7v5.5L24.6,128.1v.3l21.1,14.2v5.5L19.6,130.4Z" fill="#333" stroke="#333" stroke-linecap="round" stroke-linejoin="round" stroke-width="3"/><path d="M86.3,105.7a17.4,17.4,0,0,0-7.9-1.6c-6.1,0-8.6,3.4-8.6,8.9V116H84.1v4.7H69.8V150H64.1V120.7H54.4v-4.3l9.7-.3v-2.9c0-8.3,4.3-13.8,13.7-13.8a25.3,25.3,0,0,1,9.8,2Z" fill="#333" stroke="#333" stroke-linecap="round" stroke-linejoin="round" stroke-width="3"/><path d="M106.3,115.2c9,0,16.8,6.5,16.8,17.9s-7.8,17.8-16.8,17.8-16.8-6.5-16.8-17.8S97.3,115.2,106.3,115.2Zm0,30.9c6.5,0,10.9-5.3,10.9-13s-4.3-13.2-10.9-13.2-10.9,5.3-10.9,13.2S99.8,146.1,106.3,146.1Z" fill="#333" stroke="#333" stroke-linecap="round" stroke-linejoin="round" stroke-width="3"/><path d="M133.6,116h4.8l.5,8.1h.2c3.6-5.5,8.9-8.9,15.2-8.9a14,14,0,0,1,6.7,1.4l-1.2,5a16.1,16.1,0,0,0-6.4-1.2c-5.1,0-9.9,2.7-14,9.7v20h-5.7Z" fill="#333" stroke="#333" stroke-linecap="round" stroke-linejoin="round" stroke-width="3"/><path d="M168,116h4.5l.5,4.5h.2c1.7-3.2,3.8-5.3,7.6-5.3s5.6,2,6.4,5.9c2-3.6,4.3-5.9,8.1-5.9s7.4,3.7,7.4,10.5V150h-5.5V126.2c0-4-1.2-6-3.7-6s-4.1,1.8-5.8,5.3V150h-4.6V126.2c0-4-1.3-6-3.9-6s-3.9,1.8-5.7,5.3V150H168Z" fill="#333" stroke="#333" stroke-linecap="round" stroke-linejoin="round" stroke-width="3"/><path d="M236.4,130.4l-26.1,17.7v-5.5l21.1-14.2v-.3l-21.1-14.2v-5.5L236.4,126Z" fill="#333" stroke="#333" stroke-linecap="round" stroke-linejoin="round" stroke-width="3"/></svg>