<svg xmlns="http://www.w3.org/2000/svg" width="256" height="256" viewBox="0 0 256 256"><title>icon</title><circle cx="128" cy="128" r="124" fill="#c2bfbc"/><path d="M21.9,129l31.3-21.3v6.6L28,131.5v0.3l25.3,17.1v6.6L21.9,134.2V129Z" fill="#333" stroke="#333" stroke-linecap="round" stroke-linejoin="round" stroke-width="3"/><path d="M80.5,116c5,0,8.6,2,12.3,5.3l-0.3-7.6V98h6.9v59.8H93.8l-0.6-5.4H93c-3.4,3.4-8.2,6.4-13.3,6.4C69,158.9,62,151.1,62,137.5S70.9,116,80.5,116Zm0.6,37c4,0,7.9-2.1,11.5-6.1V126.6c-3.7-3.4-7.2-4.8-10.8-4.8-7.1,0-12.8,6.3-12.8,15.6S73.5,153.1,81.1,153.1Z" fill="#333" stroke="#333" stroke-linecap="round" stroke-linejoin="round" stroke-width="3"/><path d="M149,104.6a20.9,20.9,0,0,0-9.5-1.9c-7.3,0-10.3,4-10.3,10.7V117h17.1v5.6H129.2v35.2h-6.8V122.7H110.7v-5.2l11.7-.4v-3.4c0-10,5.2-16.5,16.5-16.5a30.3,30.3,0,0,1,11.8,2.4Z" fill="#333" stroke="#333" stroke-linecap="round" stroke-linejoin="round" stroke-width="3"/><path d="M156.4,117h5.7l0.6,7H163c4.3-4.5,9-8,15.4-8,9.7,0,14.1,5.7,14.1,16.5v25.4h-6.9V133.4c0-7.7-2.7-11.4-9.4-11.4-4.9,0-8.1,2.4-12.9,7.4v28.5h-6.9V117Z" fill="#333" stroke="#333" stroke-linecap="round" stroke-linejoin="round" stroke-width="3"/><path d="M234.1,134.2l-31.3,21.3v-6.6L228,131.8v-0.3l-25.3-17.1v-6.6L234.1,129v5.2Z" fill="#333" stroke="#333" stroke-linecap="round" stroke-linejoin="round" stroke-width="3"/></svg>