<svg xmlns="http://www.w3.org/2000/svg" width="256" height="256" viewBox="0 0 256 256"><circle cx="128" cy="128" r="124" fill="#c2bfbc"/><path fill="#333" stroke="#333" stroke-linecap="round" stroke-linejoin="round" stroke-width="3" d="M68 170.4v-84H44.9V81h30.4v94.6H44.9v-5.3zm32.6 0c11.2 0 13.8-2.7 13.8-9.9s-.7-12.4-.7-19.9 2.3-10.7 9.9-12v-.4c-7.6-1.3-9.9-4.8-9.9-12s.7-13.6.7-19.9-2.5-9.9-13.7-9.9H95V81h6.7c13.8 0 20.2 3.3 20.2 14.6 0 7.6-1 14.3-1 21.2 0 4.3 3 8.5 16 8.6v5.7c-13 .1-16 4.3-16 8.6 0 7.4 1 13.2 1 21.2 0 11.3-6.5 14.6-20.2 14.6H95v-5.3zm41.7 3.3c14.7-12.4 21.6-26.8 21.6-45.3s-6.8-33-21.6-45.4l5-4.6c15.3 11.9 24.8 28.7 24.8 49.9s-9.5 38.1-24.7 49.9zm51.4 2.9c9-4.1 13.5-9.7 13.9-18.4l-2.1.2c-4.7 0-8.6-2.7-8.6-8.2s4.1-8.4 8.8-8.4c6.5 0 9.9 5.5 9.9 14.1 0 12.9-7.3 21.9-19.4 26.4zm2.4-65.1c0-5.5 4-9.2 8.9-9.2s8.9 3.7 8.9 9.2-4 9.3-8.9 9.3-8.9-3.7-8.9-9.3z"/></svg>