<svg xmlns="http://www.w3.org/2000/svg" width="256" height="256" viewBox="0 0 256 256"><title>icon</title><circle cx="128" cy="128" r="124" fill="#c2bfbc"/><path d="M48.6,151.5a29.9,29.9,0,0,0,20.8,9c10.2,0,16.1-4.7,16.1-11.8s-5.6-9.7-13-12.8l-10.3-4.5c-7.3-2.9-15.6-8-15.6-18.6s9.9-19.1,23.6-19.1a31.5,31.5,0,0,1,22.2,8.9l-4.8,5.9a25.2,25.2,0,0,0-17.4-6.8c-8.7,0-14.3,4.1-14.3,10.6s6.7,9.5,12.9,12l10.1,4.4c8.9,3.6,16,8.6,16,19.3s-9.7,20.6-25.5,20.6a36.7,36.7,0,0,1-26.2-10.7Z" fill="#333" stroke="#333" stroke-linecap="round" stroke-linejoin="round" stroke-width="3"/><path d="M107.9,95.1h44.6v7.7H117.2v22.7H147v7.8H117.2v26.2h36.4v7.8H107.9Z" fill="#333" stroke="#333" stroke-linecap="round" stroke-linejoin="round" stroke-width="3"/><path d="M159.5,130.8c0-23.1,11.4-37.1,27.7-37.1S215,107.8,215,130.8s-11.4,37.7-27.7,37.7S159.5,154,159.5,130.8Zm46,0c0-17.9-7.3-29-18.3-29s-18.3,11.1-18.3,29,7.3,29.7,18.3,29.7S205.5,148.9,205.5,130.8Z" fill="#333" stroke="#333" stroke-linecap="round" stroke-linejoin="round" stroke-width="3"/></svg>