<svg xmlns="http://www.w3.org/2000/svg" width="1920" height="980" viewBox="0 0 1920 980"><path fill="#fff" d="M-23-33h1968V997H-23z"/><path fill="none" stroke="#005c33" stroke-miterlimit="10" stroke-width="17.24" d="M493.1 395.7h33.4a15.8 15.8 0 0 1 15.8 15.8 15.8 15.8 0 0 1-15.8 15.8h-33.4M100 142.9h124.3v252.8h261.9v197.2H163.5V206.1H100v-63.2z"/><path stroke="#005c33" stroke-miterlimit="10" d="M182.4 174.5a8.9 8.9 0 1 0 8.9-8.9 8.9 8.9 0 0 0-8.9 8.9z"/><path fill="none" stroke="#005c33" stroke-miterlimit="10" stroke-width="17.24" d="M406.5 712h21.8V592.9h-38.5L406.5 712zm-60 0h21.9V592.9h-38.5L346.5 712zm-60.7 0h21.9V592.9h-38.6L285.8 712zm-59.9 0h21.9V592.9h-38.6L225.9 712zM193.1 76h31.1v66.89h-31.1zm-64.2 0H160v66.89h-31.1zm264 352.9a24.7 24.7 0 1 0 49.4 0M368.2 483a24.7 24.7 0 0 0 49.4 0m-33.3 50.7a24.8 24.8 0 0 0 49.5 0m-234.2 2.9a24.7 24.7 0 1 0 49.4 0m-4.6-65.9a24.7 24.7 0 1 0 49.4 0m-80-50.3a24.7 24.7 0 0 0 49.4 0m25.2 102.4a24.7 24.7 0 1 0 49.4 0m-32.6-81.5a24.7 24.7 0 0 0 49.4 0"/><path fill="none" stroke="#45a200" stroke-miterlimit="10" stroke-width="17.24" d="M1131.9 395.7h33.4a15.9 15.9 0 0 1 15.9 15.8 15.9 15.9 0 0 1-15.9 15.8h-33.4M738.8 142.9h124.3v252.8H1125v197.2H802.3V206.1h-63.5v-63.2z"/><path stroke="#45a200" stroke-miterlimit="10" d="M821.2 174.5a8.9 8.9 0 1 0 8.9-8.9 8.9 8.9 0 0 0-8.9 8.9z"/><path fill="none" stroke="#45a200" stroke-miterlimit="10" stroke-width="17.24" d="M1045.3 712h21.9V592.9h-38.6l16.7 119.1zm-59.9 0h21.9V592.9h-38.6L985.4 712zm-60.8 0h21.9V592.9H908L924.6 712zm-59.9 0h21.9V592.9H848L864.7 712zM832 76h31.1v66.89H832zm-64.3 0h31.1v66.89h-31.1zm264.1 352.9a24.7 24.7 0 1 0 49.4 0M1007 483a24.8 24.8 0 0 0 49.5 0m-33.3 50.7a24.7 24.7 0 1 0 49.4 0m-234.2 2.9a24.7 24.7 0 1 0 49.4 0m-4.5-65.9a24.7 24.7 0 0 0 49.4 0m-80.1-50.3a24.7 24.7 0 0 0 49.4 0m25.2 102.4a24.8 24.8 0 1 0 49.5 0M944 441.3a24.7 24.7 0 1 0 49.4 0"/><path fill="none" stroke="#9c341c" stroke-miterlimit="10" stroke-width="17.24" d="M1770.7 395.7h33.5a15.8 15.8 0 0 1 15.8 15.8 15.8 15.8 0 0 1-15.8 15.8h-33.5m-393-284.4h124.2v252.8h261.9v197.2h-322.7V206.1h-63.4v-63.2z"/><path stroke="#9c341c" stroke-miterlimit="10" d="M1460.1 174.5a8.9 8.9 0 1 0 8.9-8.9 8.9 8.9 0 0 0-8.9 8.9z"/><path fill="none" stroke="#9c341c" stroke-miterlimit="10" stroke-width="17.24" d="M1684.1 712h21.9V592.9h-38.6l16.7 119.1zm-59.9 0h21.9V592.9h-38.6l16.7 119.1zm-60.8 0h21.9V592.9h-38.5l16.6 119.1zm-59.8 0h21.8V592.9h-38.5l16.7 119.1zm-32.8-636h31.1v66.89h-31.1zm-64.3 0h31.1v66.89h-31.1zm264.1 352.9a24.7 24.7 0 0 0 49.4 0m-74.1 54.1a24.7 24.7 0 0 0 49.4 0m-33.3 50.7a24.8 24.8 0 0 0 49.5 0m-234.3 2.9a24.7 24.7 0 1 0 49.4 0m-4.5-65.9a24.7 24.7 0 0 0 49.4 0m-80.1-50.3a24.7 24.7 0 0 0 49.4 0m25.3 102.4a24.7 24.7 0 1 0 49.4 0m-32.7-81.5a24.8 24.8 0 0 0 49.5 0"/><path d="M340.2 878.1h-38.8l-9.5 32h-17.3l36.7-111.3H331l36.7 111.3h-18zm-3.9-13.4l-4.6-15.3c-3.6-12.1-7.1-24.6-10.5-37h-.7c-3.2 12.5-6.8 24.9-10.4 37l-4.6 15.3zm589.4-65.9h31.6c22.8 0 38.9 7.3 38.9 27.3 0 10.7-6.3 20.8-19.4 24.2v.6c16.2 2.8 25.4 11.4 25.4 26.6 0 22.1-17.5 32.6-42.2 32.6h-34.3zm29.5 46.7c17.2 0 24.3-6.3 24.3-17.7s-7.9-15.8-23.7-15.8h-13.1v33.5zm2.8 51.2c17.6 0 27.5-6.5 27.5-20.3s-9.5-18.5-27.5-18.5h-15.3v38.8zm651.2-100a42 42 0 0 1 30.9 13.8l-9.5 10.7c-5.6-6-12.4-9.7-21.4-9.7-19.9 0-33.1 16.3-33.1 42.7s13.2 43.2 33.4 43.2c9.6 0 16.9-4.3 23.7-11.8l9.5 10.4c-9 10.4-20.1 16.1-34.2 16.1-28.2 0-50-20.9-50-57.4s21.5-58 50.7-58z"/></svg>