<svg xmlns="http://www.w3.org/2000/svg" width="256" height="256" viewBox="0 0 256 256"><circle cx="128" cy="128" r="124" fill="#c2bfbc"/><path fill="#333" stroke="#333" stroke-linecap="round" stroke-linejoin="round" stroke-width="3" d="M62.9 134.5H41.5l-5.7 18h-7.6L48 93.4h8.5l19.9 59h-7.9zm-1.9-6l-2.8-9c-2.1-6.6-4-13-5.8-19.9H52c-1.9 6.8-3.8 13.3-5.9 19.9l-2.8 9zm56.1 24l-14.2-24.9H92.3v24.9h-7.4v-59h18.4c12 0 20.6 4.3 20.6 16.6 0 9.2-5.2 14.7-13.2 16.7l15 25.7zm-24.7-31h9.8c9.2 0 14.2-3.8 14.2-11.4s-5-10.5-14.2-10.5h-9.9zm42.1 24.6h14.7V99.7h-14.7v-6.3h36.9v6.3h-14.7V146h14.7v6.4h-36.9zm79.8-11.6h-21.4l-5.7 18h-7.6l19.9-59h8.5l19.9 59H220zm-1.9-6l-2.8-9c-2.1-6.6-4-13-5.8-19.9h-.4c-1.9 6.8-3.8 13.3-5.8 19.9l-2.8 9z"/></svg>