<svg id="Layer_1" data-name="Layer 1" xmlns="http://www.w3.org/2000/svg" width="256" height="256" viewBox="0 0 256 256"><title>icon</title><circle cx="128" cy="128" r="124" fill="#c2bfbc"/><path d="M50.4,106.7h6.2V127H76.8V106.7h6.2v48.5H76.8V132.4H56.6v22.9H50.4Z" fill="#333" stroke="#333" stroke-linecap="round" stroke-linejoin="round" stroke-width="3"/><path d="M105.6,111.9h-16v-5.2h38.2v5.2h-16v43.4h-6.2Z" fill="#333" stroke="#333" stroke-linecap="round" stroke-linejoin="round" stroke-width="3"/><path d="M149.1,111.9h-16v-5.2h38.2v5.2h-16v43.4h-6.2Z" fill="#333" stroke="#333" stroke-linecap="round" stroke-linejoin="round" stroke-width="3"/><path d="M178.6,106.7h14.9c10.7,0,17.9,3.6,17.9,14.3s-7.3,15-17.9,15h-8.7v19.2h-6.1ZM192.7,131c8.5,0,12.6-3.1,12.6-10s-4.1-9.3-12.6-9.3h-7.9V131Z" fill="#333" stroke="#333" stroke-linecap="round" stroke-linejoin="round" stroke-width="3"/></svg>