<svg id="Layer_1" data-name="Layer 1" xmlns="http://www.w3.org/2000/svg" width="256" height="256" viewBox="0 0 256 256"><title>icon</title><circle cx="128" cy="128" r="124" fill="#c2bfbc"/><path d="M147,103.8c0-9.1,7.2-15.2,15.4-15.2s15.4,6.1,15.4,15.2a15.4,15.4,0,0,1-30.8,0Z" fill="#333" stroke="#333" stroke-linecap="round" stroke-linejoin="round" stroke-width="3"/><path d="M195.8,103.8c0-9.1,7.2-15.2,15.4-15.2s15.4,6.1,15.4,15.2a15.4,15.4,0,0,1-30.8,0Z" fill="#333" stroke="#333" stroke-linecap="round" stroke-linejoin="round" stroke-width="3"/><rect x="147" y="146.3" width="79.6" height="21.07" fill="#333" stroke="#333" stroke-linecap="round" stroke-linejoin="round" stroke-width="3"/><path d="M29.4,103.8c0-9.1,7.2-15.2,15.4-15.2s15.4,6.1,15.4,15.2A15.1,15.1,0,0,1,44.8,119,15.1,15.1,0,0,1,29.4,103.8Z" fill="#333" stroke="#333" stroke-linecap="round" stroke-linejoin="round" stroke-width="3"/><path d="M78.2,103.8c0-9.1,7.2-15.2,15.4-15.2S109,94.8,109,103.8a15.4,15.4,0,0,1-30.8,0Z" fill="#333" stroke="#333" stroke-linecap="round" stroke-linejoin="round" stroke-width="3"/><rect x="29.4" y="146.3" width="79.6" height="21.07" fill="#333" stroke="#333" stroke-linecap="round" stroke-linejoin="round" stroke-width="3"/><line x1="128" y1="29" x2="128" y2="227" fill="none" stroke="#333" stroke-linecap="round" stroke-linejoin="round" stroke-width="6"/></svg>