<svg id="Layer_1" xmlns="http://www.w3.org/2000/svg" width="256" height="256" viewBox="0 0 256 256"><style>.st0{fill:#C2BFBC;} .st1{fill:#333333;stroke:#333333;stroke-width:3;stroke-linecap:round;stroke-linejoin:round;stroke-miterlimit:10;}</style><circle class="st0" cx="128" cy="128" r="124"/><path class="st1" d="M27.4 131.2c0-25 11.1-44.8 29.2-58.8l5.8 5.4C45 92.5 37 109.4 37 131.2c0 21.8 8 38.7 25.4 53.4l-5.8 5.4c-18-14-29.2-33.8-29.2-58.8zM87.6 144.7c0-5.1-3.5-10-18.8-10.1v-6.7c15.3-.1 18.8-5.1 18.8-10.1 0-8.2-1.2-16.1-1.2-25 0-13.3 7.6-17.2 24-17.2h7.9v6.2h-6.7c-13.2 0-16.1 3.2-16.1 11.7 0 7.4.8 15.4.8 23.5 0 8.4-2.9 12.6-11.8 14.1v.5c8.9 1.6 11.8 5.7 11.8 14.1 0 8.8-.8 15.5-.8 23.5 0 8.4 2.9 11.7 16.1 11.7h6.7v6.2h-7.9c-16.3 0-24-3.9-24-17.2 0-9.7 1.2-16.5 1.2-25.2zM141.5 75.5h35.8v6.2H150v99h27.3v6.2h-35.8V75.5zM179.3 122.8L227.7 90v10.2l-39 26.3v.5l39 26.3v10.2l-48.3-32.8v-7.9z"/></svg>