<svg xmlns="http://www.w3.org/2000/svg" width="256" height="256" viewBox="0 0 256 256"><title>icon</title><circle cx="128" cy="128" r="124" fill="#c2bfbc"/><path d="M74.4,104.5c-5.2-4-9.2-6.6-16.9-6.6s-12.7,3.7-12.7,9.5c0,12.7,36.6,10.2,36.6,31.3,0,9.9-8.2,17-20.2,18.3v16.8H54.3V157.2a40.5,40.5,0,0,1-22-9l4.5-6.6c5.8,4.1,12.8,7.8,21.4,7.8s13.9-4.1,13.9-10c0-14.3-36.5-11.7-36.5-31.7,0-9.7,7.5-16.2,18.6-17.4V75.2h6.9V90.3C69.6,91,74.9,94.5,79.5,99Z" fill="#333" stroke="#333" stroke-linecap="round" stroke-linejoin="round" stroke-width="3"/><path d="M109.9,143.2c5.2,0,9.3,3.9,9.3,9.8s-4.1,9.7-9.3,9.7-9.3-3.9-9.3-9.7S104.7,143.2,109.9,143.2Z" fill="#333" stroke="#333" stroke-linecap="round" stroke-linejoin="round" stroke-width="3"/><path d="M144.9,129.3c0-22.2,9.9-39.8,25.9-52.2l5.2,4.8c-15.4,13-22.5,28.1-22.5,47.4s7.1,34.4,22.5,47.4l-5.2,4.8C154.7,169,144.9,151.4,144.9,129.3Z" fill="#333" stroke="#333" stroke-linecap="round" stroke-linejoin="round" stroke-width="3"/><path d="M192.5,176.6c15.4-13,22.5-28.1,22.5-47.4s-7.1-34.4-22.5-47.4l5.2-4.8c16,12.4,25.9,30,25.9,52.2s-9.9,39.8-25.9,52.2Z" fill="#333" stroke="#333" stroke-linecap="round" stroke-linejoin="round" stroke-width="3"/></svg>