<svg xmlns="http://www.w3.org/2000/svg" width="256" height="256" viewBox="0 0 256 256"><title>markdown</title><circle cx="128" cy="128" r="124" fill="#c2bfbc"/><path d="M56.2,149.2c5.2,0,9.3,3.9,9.3,9.8s-4.1,9.7-9.3,9.7-9.3-3.9-9.3-9.7S51,149.2,56.2,149.2Z" fill="#333" stroke="#333" stroke-linecap="round" stroke-linejoin="round" stroke-width="3"/><path d="M87,111.3h7.4l.8,7.4h.3c2.8-5.2,6.2-8.7,12.5-8.7s9.2,3.2,10.6,9.7c3.3-5.9,7-9.7,13.2-9.7S144,116,144,127.2v40h-9.1V128c0-6.6-2-9.9-6.1-9.9s-6.7,2.9-9.5,8.6v40.5h-7.6V128c0-6.6-2.2-9.9-6.3-9.9s-6.4,2.9-9.3,8.6v40.5H87Z" fill="#333" stroke="#333" stroke-linecap="round" stroke-linejoin="round" stroke-width="3"/><path d="M181.6,110c6.8,0,11.7,2.8,16.9,7.2l-.3-10.4V85.3h9.4v81.9h-7.8l-.8-7.4h-.3c-4.6,4.7-11.3,8.7-18.2,8.7-14.6,0-24.3-10.6-24.3-29.2S168.4,110,181.6,110Zm.8,50.7c5.5,0,10.8-2.9,15.8-8.4V124.4c-5.1-4.7-9.9-6.6-14.7-6.6-9.7,0-17.5,8.6-17.5,21.4S172.1,160.7,182.4,160.7Z" fill="#333" stroke="#333" stroke-linecap="round" stroke-linejoin="round" stroke-width="3"/></svg>