<svg xmlns="http://www.w3.org/2000/svg" width="256" height="256" viewBox="0 0 256 256"><title>icon</title><circle cx="128" cy="128" r="124" fill="#c2bfbc"/><path d="M70.8,135.4H46.3L39.8,156H31L53.8,88.5h9.7L86.2,156H77.2Zm-2.2-6.9-3.2-10.3c-2.4-7.5-4.5-14.9-6.7-22.8H58.3c-2.2,7.8-4.3,15.2-6.7,22.8l-3.2,10.3H68.6Z" fill="#333" stroke="#333" stroke-linecap="round" stroke-linejoin="round" stroke-width="3"/><path d="M110.9,139.8c4.6,0,8.3,3.5,8.3,8.8a8.3,8.3,0,1,1-16.7,0C102.6,143.3,106.3,139.8,110.9,139.8Z" fill="#333" stroke="#333" stroke-linecap="round" stroke-linejoin="round" stroke-width="3"/><path d="M175.3,135.4H150.7L144.3,156h-8.8l22.8-67.6h9.7L190.7,156h-9.1Zm-2.2-6.9-3.2-10.3c-2.4-7.5-4.5-14.9-6.7-22.8h-0.4c-2.2,7.8-4.3,15.2-6.7,22.8l-3.2,10.3h20.2Z" fill="#333" stroke="#333" stroke-linecap="round" stroke-linejoin="round" stroke-width="3"/><path d="M215.4,139.8c4.6,0,8.3,3.5,8.3,8.8a8.3,8.3,0,1,1-16.7,0C207,143.3,210.7,139.8,215.4,139.8Z" fill="#333" stroke="#333" stroke-linecap="round" stroke-linejoin="round" stroke-width="3"/></svg>