<svg xmlns="http://www.w3.org/2000/svg" width="256" height="256" viewBox="0 0 256 256"><title>icon</title><circle cx="128" cy="128" r="124" fill="#c2bfbc"/><path d="M30.5,127.8l23.1-15.7V117L34.9,129.5v0.2l18.7,12.6v4.9L30.5,131.6v-3.8Z" fill="#333" stroke="#333" stroke-linecap="round" stroke-linejoin="round" stroke-width="3"/><path d="M83.4,129.9c-0.1-4.1-2.2-7.6-8-7.6-3.9,0-7.7,1.9-10.5,3.6l-2-3.5c3-2,8.1-4.3,13.4-4.3,8.2,0,12.2,4.9,12.2,12.4V149H84.3l-0.4-4.1H83.7c-3.3,2.6-7.6,4.8-11.9,4.8s-10.2-3.2-10.2-8.6S67.8,131.2,83.4,129.9ZM73.1,145.7c3.4,0,6.8-1.6,10.2-4.5v-7.9c-12.9,1.1-16.9,3.6-16.9,7.6S69.7,145.7,73.1,145.7Z" fill="#333" stroke="#333" stroke-linecap="round" stroke-linejoin="round" stroke-width="3"/><path d="M98,104.9h5.1v17.9a15.3,15.3,0,0,1,10.2-4.6c8.1,0,12.5,6,12.5,15.3s-6.4,16.3-13.6,16.3c-2.9,0-6.5-1.5-9.4-4.1h-0.2l-0.4,3.3H98V104.9Zm13.3,40.6c5.3,0,9.2-4.5,9.2-12s-2.5-11.1-8.5-11.1c-2.7,0-5.8,1.4-8.9,4.5v15A13,13,0,0,0,111.3,145.5Z" fill="#333" stroke="#333" stroke-linecap="round" stroke-linejoin="round" stroke-width="3"/><path d="M134,104.9h5.1v17.9a15.3,15.3,0,0,1,10.2-4.6c8.1,0,12.5,6,12.5,15.3s-6.4,16.3-13.6,16.3c-2.9,0-6.5-1.5-9.4-4.1h-0.2l-0.4,3.3H134V104.9Zm13.3,40.6c5.3,0,9.2-4.5,9.2-12s-2.5-11.1-8.5-11.1c-2.7,0-5.8,1.4-8.9,4.5v15A13,13,0,0,0,147.2,145.5Z" fill="#333" stroke="#333" stroke-linecap="round" stroke-linejoin="round" stroke-width="3"/><path d="M171.4,118.9h4.2l0.4,7.1h0.2c3.2-4.8,7.9-7.9,13.5-7.9a12.4,12.4,0,0,1,5.9,1.2l-1.1,4.4a14.3,14.3,0,0,0-5.6-1.1c-4.5,0-8.8,2.4-12.4,8.6V149h-5.1V118.9Z" fill="#333" stroke="#333" stroke-linecap="round" stroke-linejoin="round" stroke-width="3"/><path d="M225.5,131.6l-23.1,15.7v-4.9l18.7-12.6v-0.2L202.4,117v-4.9l23.1,15.7v3.8Z" fill="#333" stroke="#333" stroke-linecap="round" stroke-linejoin="round" stroke-width="3"/></svg>