<?xml version="1.0" encoding="utf-8"?>
<!-- Generator: Adobe Illustrator 19.1.0, SVG Export Plug-In . SVG Version: 6.00 Build 0)  -->
<!DOCTYPE svg PUBLIC "-//W3C//DTD SVG 1.1//EN" "http://www.w3.org/Graphics/SVG/1.1/DTD/svg11.dtd">
<svg version="1.1" id="Layer_1" xmlns="http://www.w3.org/2000/svg" xmlns:xlink="http://www.w3.org/1999/xlink" x="0px" y="0px"
	 width="256px" height="256px" viewBox="0 0 256 256" style="enable-background:new 0 0 256 256;" xml:space="preserve">
<style type="text/css">
	.st0{fill:#C2BFBC;}
	.st1{fill:#333333;stroke:#333333;stroke-width:3;stroke-linecap:round;stroke-linejoin:round;stroke-miterlimit:10;}
</style>
<circle class="st0" cx="128" cy="128" r="124"/>
<g>
	<path class="st1" d="M62.6,155.2h-5.8l-0.6-7.3h-0.3c-4.2,4.9-9.1,8.3-15.6,8.3c-10,0-14.5-5.8-14.5-16.9v-26H33v25
		c0,7.9,2.7,11.7,9.6,11.7c4.8,0,8.3-2.3,13-7.7v-29h7.1V155.2z"/>
	<path class="st1" d="M77.4,169H71l28.2-74.8h6.4L77.4,169z"/>
	<path class="st1" d="M114.6,113.4h5.8l0.6,9.9h0.3c4.4-6.7,10.9-10.9,18.7-10.9c3.1,0,5.6,0.4,8.2,1.7l-1.5,6.1
		c-2.9-1-4.6-1.5-7.8-1.5c-6.3,0-12.2,3.3-17.2,12v24.5h-7.1V113.4z"/>
	<path class="st1" d="M153.6,169h-6.4l28.2-74.8h6.4L153.6,169z"/>
	<path class="st1" d="M192.2,94h21.3v47.7c0,6.1,3.2,8.7,8.2,8.7c2.4,0,4.8-0.6,7.9-2l1.8,5.3c-3.8,1.4-6.7,2.5-11.3,2.5
		c-8.9,0-13.7-5.2-13.7-15V99.8h-14.3V94z"/>
</g>
<g>
</g>
<g>
</g>
<g>
</g>
<g>
</g>
<g>
</g>
<g>
</g>
<g>
</g>
<g>
</g>
<g>
</g>
<g>
</g>
<g>
</g>
<g>
</g>
<g>
</g>
<g>
</g>
<g>
</g>
</svg>
