<svg xmlns="http://www.w3.org/2000/svg" width="256" height="256" viewBox="0 0 256 256"><style type="text/css">.st0{fill:#00DEAF;} .st1{fill:#D1FFF5;} .st2{fill:#D1FFF5;stroke:#D1FFF5;stroke-width:7;stroke-linecap:round;stroke-linejoin:round;stroke-miterlimit:10;} .st3{fill:#C2BFBC;} .st4{fill:#333333;stroke:#333333;stroke-width:7;stroke-linecap:round;stroke-linejoin:round;stroke-miterlimit:10;} .st5{fill:#00DEAF;stroke:#D1FFF5;stroke-width:8;stroke-miterlimit:10;} .st6{fill:none;stroke:#D1FFF5;stroke-width:8;stroke-miterlimit:10;}</style><circle class="st0" cx="-177" cy="128" r="124"/><path class="st1" d="M-145.1 118.1c5.6 1.1 9.5 3.4 11.8 7.1 2.3 3.7 3.4 9.4 3.4 17.3 0 15.6-4.7 28.4-14.1 38.3-9.4 9.9-21.4 14.9-36 14.9-5.8 0-11.4-1-16.8-3.1s-10.1-5-14-8.7c-4.5-4.1-7.8-8.4-10-13s-3.3-9.2-3.3-14c0-5.3 1.1-9.5 3.4-12.4 2.3-2.9 5.9-4.9 10.9-5.9-.9-2.2-1.6-4-2-5.5-.4-1.5-.7-2.6-.7-3.4 0-2.8 1.5-5.6 4.4-8.6 2.9-2.9 5.7-4.4 8.3-4.4 1.1 0 2.3.2 3.5.6 1.2.4 2.7 1.1 4.3 2-4.8-13.5-8.2-23.9-10.4-31.3-2.2-7.3-3.3-12.4-3.3-15.2 0-3.8 1-6.9 3-9.2 2-2.3 4.7-3.4 8.1-3.4 5.8 0 13.2 13 22.1 39 1.5 4.5 2.7 7.9 3.5 10.3.7-1.9 1.6-4.6 2.9-8.2 8.9-25.8 16.6-38.7 23.1-38.7 3.2 0 5.7 1.1 7.6 3.2 1.9 2.1 2.8 5 2.8 8.6 0 2.7-1 7.7-3.1 15-2.1 7.5-5.2 16.9-9.4 28.7zm-66.6 37.9c.9 1.1 2.1 2.6 3.6 4.6 4.1 5.6 7.9 8.5 11.3 8.5 1.2 0 2.2-.4 3.2-1.1.9-.7 1.4-1.5 1.4-2.3 0-.9-.6-2.5-1.9-4.6-1.2-2.2-2.9-4.6-5.1-7.3-2.5-3.2-4.5-5.5-6.2-6.9-1.6-1.5-3-2.2-4-2.2-2.2 0-4.2 1.2-6 3.5-1.8 2.3-2.7 5.1-2.7 8.2 0 2.5.6 5.4 1.9 8.5 1.3 3.1 3.1 6.3 5.5 9.4 3.7 4.9 8.2 8.7 13.6 11.3 5.4 2.6 11.4 4 18 4 12.1 0 22.2-4.5 30.4-13.5 8.1-9 12.2-20.3 12.2-33.9 0-4.2-.3-7.5-.9-9.9-.6-2.4-1.6-4.2-3.1-5.3-2.5-2.1-7.5-4-14.8-5.7-7.3-1.7-15-2.5-23-2.5-2.2 0-3.8.4-4.7 1.1s-1.4 2-1.4 3.8c0 4.2 2.4 7.3 7.1 9.2 4.7 1.9 12.3 2.8 22.9 2.8h3.8c.9 0 1.6.3 2.1 1s.9 1.6 1.1 2.9c-1.1 1-3.2 2.1-6.5 3.4-3.3 1.3-5.8 2.5-7.5 3.8-3.7 2.7-6.7 6-9 9.7-2.3 3.7-3.4 7.3-3.4 10.6 0 2 .5 4.5 1.4 7.4 1 2.9 1.4 4.7 1.4 5.3v.7l-.2.8c-2.7-.2-4.9-1.8-6.5-4.8-1.6-3-2.4-7-2.4-12v-.8c-.5.4-1 .7-1.4.9-.5.2-1 .3-1.5.3-.6 0-1.1 0-1.6-.1s-1.1-.2-1.7-.4c.2.7.3 1.3.4 2 .1.7.1 1.2.1 1.5 0 2.3-.9 4.3-2.7 5.9-1.8 1.6-3.9 2.5-6.4 2.5-3.9 0-7.9-1.9-11.9-5.7-4-3.8-6-7.5-6-11.2 0-.7.1-1.3.2-1.8.3-.8.6-1.2.9-1.6zm27.9 2.2c1.1 0 2-.5 2.9-1.4.9-1 1.3-2 1.3-3.1 0-1.2-.9-3.9-2.6-8.2-1.7-4.3-3.8-8.5-6.4-12.7-1.9-3.1-3.7-5.4-5.5-7-1.8-1.6-3.5-2.4-5.1-2.4-1.3 0-2.7.8-4.3 2.5-1.6 1.6-2.4 3.2-2.4 4.6 0 1.5.8 3.7 2.3 6.7 1.5 3 3.6 6.1 6.2 9.5 2.7 3.7 5.3 6.5 7.7 8.6 2.6 1.9 4.5 2.9 5.9 2.9zm9.1-44.9l-10-29c-2.6-7.4-4.6-12.2-6-14.5-1.4-2.3-3-3.4-4.6-3.4-1.3 0-2.4.5-3.2 1.5-.8 1-1.2 2.3-1.2 4 0 2.9 1.1 7.8 3.3 14.9 2.2 7.1 5.4 16.3 9.8 27.8.4-.7.9-1.2 1.6-1.4.7-.3 1.6-.4 2.8-.4.4 0 1.1 0 2.2.1 1 0 2.8.2 5.3.4zm10.5 28.2c-2.7-.1-5.2-.4-7.6-.8-2.4-.4-4.7-1.1-6.8-1.9 1 2 1.9 4 2.6 5.9.8 2 1.4 3.9 1.9 5.9 1.5-1.9 3.1-3.5 4.7-5.1 1.7-1.5 3.4-2.8 5.2-4zm12.4-25c4.2-11.3 7.4-20.6 9.7-27.9 2.3-7.3 3.5-11.9 3.5-13.5 0-1.8-.4-3.2-1.2-4.2-.8-1-1.8-1.5-3.2-1.5-1.7 0-3.5 1.4-5.3 4.3-1.8 2.9-3.8 7.5-5.9 13.9l-9.3 26.9 11.7 2z"/><circle class="st0" cx="128" cy="128" r="124"/><path class="st2" d="M60.6 128.3l37.8-26.5v3.8l-34.5 24.2v.4l34.5 24.2v3.8l-37.8-26.5v-3.4zM112.9 179.2h-3.6l34-90.9h3.6l-34 90.9zM197.4 131.6l-37.8 26.5v-3.8l34.5-24.2v-.4l-34.5-24.2v-3.8l37.8 26.5v3.4z"/><circle class="st0" cx="-486" cy="128" r="124"/><circle class="st3" cx="440" cy="128" r="124"/><path class="st4" d="M498.7 138.9l-95.1 63.6v-23.5l73.7-48.7v-1l-73.7-48.7v-23.4l95.1 63.6v18.1z"/><path class="st1" d="M-480.9 63.7h-9.3c-2.6 0-4.8 2.1-4.8 4.8v133.1c0 2.6 2.1 4.8 4.8 4.8h9.3c2.6 0 4.8-2.1 4.8-4.8v-133.1c0-2.7-2.1-4.8-4.8-4.8z"/><path class="st5" d="M-459.8 66h-71.2v60h90v-40.4c-13-.5-18.5-6.6-18.8-19.6z"/><path class="st6" d="M-516 66v60"/></svg>