<svg xmlns="http://www.w3.org/2000/svg" width="256" height="256" viewBox="0 0 256 256"><style type="text/css">.st0{fill:#C2BFBC;} .st1{fill:#333333;}</style><circle class="st0" cx="128" cy="128" r="124"/><path class="st1" d="M100.1 98.6c-1.2-.6-2.6-.5-3.6.2l-37.9 26.5c-.9.7-1.6 1.7-1.6 2.9v3.3c0 1.1.6 2.2 1.5 2.9l37.9 26.6c.6.4 1.3.6 2 .6.6 0 1.2-.1 1.7-.4 1.2-.6 1.9-1.8 1.9-3.1v-3.8c0-1.1-.6-2.2-1.5-2.9l-30.7-21.6 30.7-21.6c.9-.7 1.5-1.7 1.5-2.9v-3.8c0-1.1-.8-2.3-1.9-2.9zM147 85h-3.6c-1.5 0-2.8.8-3.3 2.2l-34 90.8c-.4 1.1-.3 2.4.4 3.3s1.7 1.6 2.9 1.6h3.6c1.5 0 2.8-1 3.3-2.4l34-90.9c.4-1.1.3-2.2-.4-3.2-.7-.9-1.8-1.4-2.9-1.4zM199.5 125.4l-37.8-26.5c-1.1-.8-2.5-.8-3.7-.2-1.2.6-1.9 1.8-1.9 3.1v3.8c0 1.1.6 2.2 1.5 2.9l30.7 21.6-30.7 21.6c-.9.7-1.5 1.7-1.5 2.9v3.8c0 1.3.8 2.5 1.9 3.1.5.3 1.1.4 1.6.4.7 0 1.4-.2 2-.6l37.9-26.5c.9-.7 1.5-1.7 1.5-2.9v-3.3c0-1.5-.6-2.6-1.5-3.2z"/></svg>