<svg xmlns="http://www.w3.org/2000/svg" width="256" height="256" viewBox="0 0 256 256"><defs><style>.a{fill:#c2bfbc;}.b{fill:#333;stroke:#333;stroke-linecap:round;stroke-linejoin:round;stroke-width:3px;}</style></defs><title>icon</title><circle class="a" cx="128" cy="128" r="124"/><path class="b" d="M69.9 148.8c5.2 0 9.5 3.8 9.5 9.8s-4.3 10.1-9.5 10.1-9.5-3.9-9.5-10.1 4.3-9.8 9.5-9.8zm-4.9-56.2l-.3-12.2h10.4l-.3 12.2-1.3 44.6h-7.2zm49.3-22.6h7.5v129.6h-7.5v-129.6zm96.7 98.8c-5.6-1.7-11.5-4.9-17.8-9.7-6.2 6-13.6 9.7-23.2 9.7-15 0-25.4-9.8-25.4-23.6 0-11.1 7.6-18.3 15.9-24.4-3.6-7-5.7-14-5.7-20.1 0-11.3 7.4-20.1 18.7-20.1s16.5 6.9 16.5 16.9-9.3 18-18.3 24.9a110.2 110.2 0 0 0 20.7 23.8c4.8-6.9 8.3-15.2 10.8-24.9h9.8c-3.1 11.1-7.5 21.5-13.7 30.5a48.1 48.1 0 0 0 14.7 8.2zm-39.7-8.6c5.3 0 10.5-2.6 14.9-6.7a122.8 122.8 0 0 1-21.6-25.4c-5.4 4.8-9.6 9.8-9.6 16.5.1 9.4 7.3 15.6 16.4 15.6zm-3.3-44.7c7.3-5.2 13.3-10.4 13.3-17.9 0-4.9-2.1-9.3-7.8-9.3s-9.5 5.3-9.5 12.3c.1 4.7 1.5 9.7 4 14.9z"/></svg>