<svg xmlns="http://www.w3.org/2000/svg" width="256" height="256" viewBox="0 0 256 256"><circle cx="128" cy="128" r="124" fill="#c2bfbc"/><path fill="#333" stroke="#333" stroke-linecap="round" stroke-linejoin="round" stroke-width="3" d="M63.3 125.4c-.2-6.6-3.5-12.2-12.9-12.2-6.3 0-12.5 3-17 5.8l-3.2-5.6c4.9-3.2 13.1-7 21.6-7 13.3 0 19.7 7.9 19.7 20v29.8h-6.7l-.7-6.6h-.3c-5.4 4.2-12.3 7.8-19.2 7.8-9.1 0-16.5-5.1-16.5-13.8 0-10.9 10.1-16.2 35.2-18.2zm-16.5 25.4c5.5 0 11-2.6 16.5-7.2v-12.8c-20.8 1.7-27.2 5.8-27.2 12.2s5.1 7.8 10.7 7.8zm79.9-1.4v6.8h-43v-6.8h18.1v-47H88.2v-5.3a48 48 0 0 0 15.7-4.7h6.1v57zm54.1 0v6.8h-43v-6.8h18.1v-47h-13.6v-5.3a48 48 0 0 0 15.7-4.7h6.1v57zm8 20.9c6.8 0 10.9-4.4 13.3-10.4l1.5-3.6-22.7-48.7h8.3l11.9 26.9c1.9 4.3 4 9.4 6 14.1h.4l5.2-14.1 10.6-26.9h7.8l-21.4 52.6c-3.6 9.6-9.6 16.9-20.6 16.9a20.5 20.5 0 0 1-6.4-1l1.7-6.5a15.6 15.6 0 0 0 4.4.7z"/></svg>