<svg xmlns="http://www.w3.org/2000/svg" width="256" height="256" viewBox="0 0 256 256"><style type="text/css">.st0{fill:#C2BFBC;} .st1{fill:#333333;stroke:#333333;stroke-width:3;stroke-miterlimit:10;} .st2{fill:#C2BFBC;stroke:#333333;stroke-width:3;stroke-linecap:round;stroke-linejoin:round;stroke-miterlimit:10;} .st3{fill:#333333;stroke:#333333;stroke-width:3;stroke-linecap:round;stroke-linejoin:round;stroke-miterlimit:10;}</style><circle class="st0" cx="128" cy="128" r="124"/><path class="st1" d="M176 195.2h-96c-9 0-16.4-7.3-16.4-16.4v-96c0-9 7.3-16.4 16.4-16.4h96c9 0 16.4 7.3 16.4 16.4v96c0 9.1-7.4 16.4-16.4 16.4z"/><path class="st2" d="M176 185.2h-96c-9 0-16.4-7.3-16.4-16.4v-96c0-9 7.3-16.4 16.4-16.4h96c9 0 16.4 7.3 16.4 16.4v96c0 9.1-7.4 16.4-16.4 16.4z"/><path class="st3" d="M120.5 137.5v8.7c0 4.4-1.6 8.1-4.7 11.2-3.2 3.1-6.9 4.7-11.4 4.7-4.4 0-8.2-1.6-11.3-4.7-3.1-3.1-4.7-6.9-4.7-11.4 0-4.4 1.6-8.1 4.7-11.3 3.1-3.2 6.8-4.7 11.2-4.7h8.7v-15.1h-8.7c-4.3 0-8-1.6-11.2-4.7-3.1-3.2-4.7-6.9-4.7-11.3s1.6-8.2 4.7-11.3 6.9-4.7 11.3-4.7 8.2 1.6 11.4 4.7c3.2 3.1 4.7 6.8 4.7 11.2v8.7h15.1v-8.7c0-4.4 1.6-8.1 4.7-11.2 3.2-3.1 7-4.7 11.4-4.7s8.2 1.6 11.3 4.7c3.1 3.1 4.7 6.9 4.7 11.3s-1.6 8.2-4.7 11.3c-3.1 3.2-6.8 4.7-11.2 4.7h-8.7v15.1h8.7c4.4 0 8.1 1.6 11.2 4.7 3.1 3.2 4.7 6.9 4.7 11.3 0 4.5-1.6 8.3-4.7 11.4-3.1 3.1-6.9 4.7-11.3 4.7s-8.3-1.6-11.4-4.7c-3.2-3.1-4.7-6.8-4.7-11.2v-8.7h-15.1zm-7.6-30.2v-8.5c0-2.3-.8-4.3-2.5-6-1.7-1.7-3.7-2.5-6.1-2.5-2.3 0-4.3.8-5.9 2.5-1.7 1.7-2.5 3.7-2.5 6s.8 4.3 2.5 6c1.7 1.7 3.7 2.5 6 2.5h8.5zm0 30.2h-8.5c-2.3 0-4.3.8-6 2.5-1.7 1.7-2.5 3.6-2.5 5.9 0 2.4.8 4.4 2.5 6.1 1.7 1.7 3.7 2.5 6 2.5s4.3-.8 6-2.5c1.7-1.7 2.5-3.7 2.5-6v-8.5zm7.6-7.5h15.1v-15.1h-15.1v15.1zm22.6-22.7h8.6c2.3 0 4.3-.8 5.9-2.5s2.5-3.7 2.5-6-.8-4.3-2.5-6c-1.6-1.7-3.6-2.5-6-2.5s-4.4.8-6 2.5c-1.7 1.7-2.5 3.7-2.5 6v8.5zm0 30.2v8.5c0 2.3.8 4.3 2.5 6s3.7 2.5 6 2.5c2.4 0 4.4-.8 6-2.5s2.5-3.7 2.5-6.1c0-2.3-.8-4.3-2.5-5.9s-3.6-2.5-5.9-2.5h-8.6z"/></svg>