<svg xmlns="http://www.w3.org/2000/svg" width="256" height="256" viewBox="0 0 256 256"><title>icon</title><circle cx="128" cy="128" r="124" fill="#c2bfbc"/><path d="M47.5,130c0-11.4,9.1-19,19.3-19s19.3,7.6,19.3,19S77,149,66.8,149,47.5,141.2,47.5,130Z" fill="#333" stroke="#333" stroke-linecap="round" stroke-linejoin="round" stroke-width="3"/><path d="M108.7,130c0-11.4,9.1-19,19.3-19s19.3,7.6,19.3,19-9.1,19-19.3,19S108.7,141.2,108.7,130Z" fill="#333" stroke="#333" stroke-linecap="round" stroke-linejoin="round" stroke-width="3"/><path d="M169.9,130c0-11.4,9.1-19,19.3-19s19.3,7.6,19.3,19-9.1,19-19.3,19S169.9,141.2,169.9,130Z" fill="#333" stroke="#333" stroke-linecap="round" stroke-linejoin="round" stroke-width="3"/></svg>