<svg xmlns="http://www.w3.org/2000/svg" width="256" height="256" viewBox="0 0 256 256"><circle cx="128" cy="128" r="124" fill="#c2bfbc"/><path fill="#333" stroke="#333" stroke-linecap="round" stroke-linejoin="round" stroke-width="3" d="M38.5 93.4h7.4v17.5l-.2 8.5c4.1-4.1 9.7-6.7 14.8-6.7 11.8 0 18.2 8.7 18.2 22.2s-9.3 23.7-19.7 23.7c-4.2 0-9.4-2.2-13.6-5.9h-.3l-.6 4.9h-6zm19.3 58.9c7.6 0 13.3-6.6 13.3-17.4s-3.6-16.1-12.3-16.1c-3.9 0-8.4 2.1-12.9 6.6v21.8c4.2 3.7 8.7 5.2 11.9 5.2zm51.5-39.6c11.5 0 21.6 8.4 21.6 23s-10.1 22.9-21.6 22.9-21.6-8.4-21.6-22.9 10.1-23 21.6-23zm0 39.8c8.4 0 13.9-6.7 13.9-16.7s-5.6-16.9-13.9-16.9-13.9 6.8-13.9 16.9 5.5 16.6 13.9 16.6zm52.1-39.8c11.5 0 21.6 8.4 21.6 23s-10.1 22.9-21.6 22.9-21.6-8.4-21.6-22.9 10.1-23 21.6-23zm0 39.8c8.4 0 13.9-6.7 13.9-16.7s-5.6-16.9-13.9-16.9-14 6.8-14 16.9 5.6 16.6 14 16.6zm23.7-59.1h22.3v49.9c0 6.4 3.3 9.1 8.5 9.1a19.9 19.9 0 0 0 8.3-2.1l1.9 5.6c-4 1.4-7 2.6-11.8 2.6-9.3 0-14.3-5.4-14.3-15.7V99.4h-14.9z"/></svg>