<svg xmlns="http://www.w3.org/2000/svg" width="256" height="256" viewBox="0 0 256 256"><defs><style>.a{fill:#c2bfbc;}.b{fill:#333;stroke:#333;stroke-linecap:round;stroke-linejoin:round;stroke-width:3px;}</style></defs><title>icon</title><circle class="a" cx="128" cy="128" r="124"/><path class="b" d="M60.6 127.5c0-23 14.2-37 32.3-37 14.6 0 24.4 10.2 31 22.4h.9c9.1-15.5 20.4-25.9 36.3-25.9 19.7 0 34.1 15.7 34.1 37.9 0 24.8-14.4 41.2-34.3 41.2-16.2 0-26.8-8.2-38.1-26.4h-.8c-6.4 10.6-16.4 21.9-31.7 21.9s-29.7-15.1-29.7-34.1zm55.4.7c-7.3-14.4-14.8-20.4-23.5-20.4-10.6 0-17.5 7.1-17.5 19.1s8 20.8 17.9 20.8 17.4-6.9 23.1-19.6zm44.3 20.4c13.1 0 20.6-10.4 20.6-23 0-14.2-8.2-24.6-22.2-24.6-10.4 0-19.1 6.9-27.9 23 9.8 18.1 18.2 24.5 29.5 24.5z"/></svg>