<svg id="Layer_1" data-name="Layer 1" xmlns="http://www.w3.org/2000/svg" width="500" height="57" viewBox="0 0 500 57"><title>question-01</title><rect width="500" height="57" fill="#aca594"/><path d="M201.4,31.1V25.9l7.5-7.2,2.4,2.1-5.9,7.8,5.9,7.8-2.4,2.1Zm11.4,0V25.9l7.5-7.2,2.4,2.1-5.9,7.8,5.9,7.8-2.4,2.1Z"/><path d="M298.6,31.1V25.9l-7.5-7.2-2.4,2.1,5.9,7.8-5.9,7.8,2.4,2.1Zm-11.4,0V25.9l-7.5-7.2-2.4,2.1,5.9,7.8-5.9,7.8,2.4,2.1Z"/><path d="M270,26.2a20,20,0,1,0-40,0l-1.9,24.6,3.5-3.5,3.7,3.7,3.7-3.7,3.7,3.7,3.7-3.7,3.7,3.7,3.7-3.7,3.7,3.7,3.7-3.7,3.7,3.7,3.7-3.7,3,3Zm-26.3,2.4c-1.7,0-3-2.6-3-5.8s1.3-5.8,3-5.8,3,2.6,3,5.8S245.3,28.6,243.7,28.6Zm12.6,0c-1.7,0-3-2.6-3-5.8s1.3-5.8,3-5.8,3,2.6,3,5.8S258,28.6,256.3,28.6Z"/></svg>