<svg id="Layer_1" data-name="Layer 1" xmlns="http://www.w3.org/2000/svg" width="500" height="57" viewBox="0 0 500 57"><title>question-04</title><rect width="500" height="57" fill="#aca594"/><path d="M59.7,26.4a20,20,0,1,0-40,0L17.8,51l3.5-3.5L25,51.2l3.7-3.7,3.7,3.7,3.7-3.7,3.7,3.7,3.7-3.7,3.7,3.7,3.7-3.7,3.7,3.7,3.7-3.7,3,3ZM30.4,23c0-3.2,1.3-5.8,3-5.8s3,2.6,3,5.8v.2L35.2,23A3,3,0,0,0,34,28.7h-.6C31.7,28.8,30.4,26.2,30.4,23ZM43,23c0-3.2,1.3-5.8,3-5.8s3,2.6,3,5.8v.3L47.8,23a3,3,0,0,0-1.2,5.7H46C44.3,28.8,43,26.2,43,23Z"/><path d="M440.3,26.4a20,20,0,1,1,40,0L482.3,51l-3.5-3.5L475,51.2l-3.7-3.7-3.7,3.7-3.7-3.7-3.7,3.7-3.7-3.7-3.7,3.7-3.7-3.7-3.7,3.7-3.7-3.7-3,3ZM469.6,23c0-3.2-1.3-5.8-3-5.8s-3,2.6-3,5.8v.2l1.1-.2a3,3,0,0,1,1.3,5.7h.6C468.3,28.8,469.6,26.2,469.6,23ZM457,23c0-3.2-1.3-5.8-3-5.8s-3,2.6-3,5.8v.3l1.2-.3a3,3,0,0,1,1.2,5.7h.5C455.7,28.8,457,26.2,457,23Z"/><path d="M203.8,28h-.5l-.6.2a.8.8,0,0,0-.5.4,1.5,1.5,0,0,0-.1.6v1.6q0,.5,0,.8v.7a11.8,11.8,0,0,1-2.9,1.1,13.5,13.5,0,0,1-3.5.5,8.5,8.5,0,0,1-2.8-.5,6.6,6.6,0,0,1-2.3-1.4,6.4,6.4,0,0,1-1.6-2.3,7.9,7.9,0,0,1-.6-3.1,8.2,8.2,0,0,1,.5-3,6.7,6.7,0,0,1,1.6-2.4,6.8,6.8,0,0,1,2.4-1.5,8.9,8.9,0,0,1,3.2-.5,7.8,7.8,0,0,1,2.2.3l1.7.6.6-.5h.8v5.1h-.9a9.1,9.1,0,0,0-1.8-3.4,3.4,3.4,0,0,0-2.6-1.1,3.2,3.2,0,0,0-2.9,1.6,8.5,8.5,0,0,0-1,4.5,9.6,9.6,0,0,0,1,4.8,3.1,3.1,0,0,0,2.8,1.7l1.5-.3,1-.6V29.4a1.3,1.3,0,0,0-.1-.6l-.5-.4-.7-.2h-.7v-.8h7.2Z"/><path d="M217.1,33.7h-5.9v-.7h.8l.3-.3a1.7,1.7,0,0,0,.1-.6V27.3a2.5,2.5,0,0,0-.4-1.5,1.3,1.3,0,0,0-1.1-.5h-.7l-.7.3-.5.4-.3.4v5.2a1.5,1.5,0,0,0,.1.6l.3.3.4.2h.5v.7h-6v-.7h.9l.4-.3a1.3,1.3,0,0,0,.1-.6V21a1.7,1.7,0,0,0-.1-.7,1.1,1.1,0,0,0-.4-.5l-.6-.2h-.7v-.7l4.9-.3v6.9h0l.7-.6.7-.5.9-.4,1.3-.2a3,3,0,0,1,2.4.9,3.5,3.5,0,0,1,.8,2.4v4.8a1.3,1.3,0,0,0,.1.6l.4.3h.9Z"/><path d="M228,25.1a4.5,4.5,0,0,1,1.1,1.6,5.3,5.3,0,0,1,.4,2,5.6,5.6,0,0,1-.4,2,4.5,4.5,0,0,1-1.1,1.6,5.2,5.2,0,0,1-1.8,1.1,7.1,7.1,0,0,1-2.4.4,6.7,6.7,0,0,1-2.2-.3,5.1,5.1,0,0,1-1.8-1,4.6,4.6,0,0,1-1.2-1.6,5.2,5.2,0,0,1-.4-2.2,5.4,5.4,0,0,1,.4-2.1,4.7,4.7,0,0,1,1.1-1.6,5,5,0,0,1,1.8-1.1,7.8,7.8,0,0,1,4.8,0A5.2,5.2,0,0,1,228,25.1Zm-2.5,6.8a5.7,5.7,0,0,0,.3-1.3,14.1,14.1,0,0,0,.1-1.8,14.5,14.5,0,0,0-.1-1.6,5.8,5.8,0,0,0-.3-1.4,2.3,2.3,0,0,0-.6-1,1.8,1.8,0,0,0-2.2,0,2.5,2.5,0,0,0-.6,1,5.4,5.4,0,0,0-.3,1.3,14.8,14.8,0,0,0-.1,1.6q0,1.1.1,1.8a5.5,5.5,0,0,0,.3,1.4,2.2,2.2,0,0,0,.6,1,1.6,1.6,0,0,0,1.1.4,1.6,1.6,0,0,0,1-.3A2.2,2.2,0,0,0,225.5,31.9Z"/><path d="M235.3,34l-1.9-.3-1.4-.6-.3.7H231V30.1h.7l.5,1,.8,1,1,.7a2.7,2.7,0,0,0,1.3.3,2.1,2.1,0,0,0,1.3-.3,1.3,1.3,0,0,0,.4-1.1,1,1,0,0,0-.2-.6l-.5-.4-.8-.3-1.1-.3-1.1-.4-1-.6a2.8,2.8,0,0,1-1-2.2,2.6,2.6,0,0,1,1.2-2.2,5,5,0,0,1,3-.8l1.6.2,1.3.4.2-.6h.7l.2,3.3h-.7a4.1,4.1,0,0,0-1.2-1.8,2.6,2.6,0,0,0-1.8-.7,2,2,0,0,0-1.2.3,1,1,0,0,0-.4.9,1.1,1.1,0,0,0,.6,1.1l1.8.6a5.7,5.7,0,0,1,2.6,1.2,2.6,2.6,0,0,1,.8,2,2.9,2.9,0,0,1-1.3,2.5A5.6,5.6,0,0,1,235.3,34Z"/><path d="M248.3,33.2l-1.3.5-1.7.2a3.1,3.1,0,0,1-2.3-.7,2.9,2.9,0,0,1-.7-2.1v-6h-1.8V24h1.8v-3h3.2v3h2.7v1.1h-2.7v5.3a3,3,0,0,0,.3,1.6,1.3,1.3,0,0,0,1.1.5h1.4Z"/><path d="M253.5,34l-1.9-.3-1.4-.6-.3.7h-.8V30.1h.7l.5,1,.8,1,1,.7a2.7,2.7,0,0,0,1.3.3,2.1,2.1,0,0,0,1.3-.3,1.3,1.3,0,0,0,.4-1.1,1,1,0,0,0-.2-.6l-.5-.4-.8-.3-1.1-.3-1.1-.4-1-.6a2.8,2.8,0,0,1-1-2.2,2.6,2.6,0,0,1,1.2-2.2,5,5,0,0,1,3-.8l1.6.2,1.3.4.2-.6h.7l.2,3.3h-.7a4.1,4.1,0,0,0-1.2-1.8,2.6,2.6,0,0,0-1.8-.7,2,2,0,0,0-1.2.3,1,1,0,0,0-.4.9,1.1,1.1,0,0,0,.6,1.1l1.8.6a5.7,5.7,0,0,1,2.6,1.2,2.6,2.6,0,0,1,.8,2,2.9,2.9,0,0,1-1.3,2.5A5.6,5.6,0,0,1,253.5,34Z"/><path d="M259.6,24.9a5.4,5.4,0,0,0,1.7-1.2,3,3,0,0,0,.7-1.7h-1.5l-.6-.4-.3-.5a1.9,1.9,0,0,1-.1-.6,1.5,1.5,0,0,1,.5-1.1,1.7,1.7,0,0,1,1.2-.5,2,2,0,0,1,1.7.7,3,3,0,0,1,.6,2,3.7,3.7,0,0,1-1,2.4,6.5,6.5,0,0,1-2.4,1.8Z"/><path d="M280.6,33.7h-5.3L273,30.3l-2.3-2.9h-.5v4.2a1.2,1.2,0,0,0,.1.6l.5.4.6.2h.7v.8h-7.4v-.8h1.4l.5-.4a1.3,1.3,0,0,0,.1-.6V21.9a1.4,1.4,0,0,0-.1-.6l-.5-.4-.7-.2h-.7v-.8h7.8a7.8,7.8,0,0,1,4,.8,2.7,2.7,0,0,1,1.4,2.5,3.3,3.3,0,0,1-.8,2.3,5.6,5.6,0,0,1-2.5,1.4l1.5,2,1.8,2.3.8.9a2.4,2.4,0,0,0,.9.7h1.1ZM274,23.4a2.5,2.5,0,0,0-.8-2,3.4,3.4,0,0,0-2.2-.6h-.8v5.8h.7a3.1,3.1,0,0,0,2.2-.8A3.2,3.2,0,0,0,274,23.4Z"/><path d="M280.9,24.9a5.4,5.4,0,0,0,1.7-1.2,3,3,0,0,0,.7-1.7h-1.5l-.6-.4-.3-.5a1.9,1.9,0,0,1-.1-.6,1.5,1.5,0,0,1,.5-1.1,1.7,1.7,0,0,1,1.2-.5,2,2,0,0,1,1.7.7,3,3,0,0,1,.6,2,3.7,3.7,0,0,1-1,2.4,6.5,6.5,0,0,1-2.4,1.8Z"/><path d="M302,20.6h-.8l-.9.4a1.4,1.4,0,0,0-.5.9,8.8,8.8,0,0,0-.2,1.9V29a4.7,4.7,0,0,1-1.5,3.7A5.9,5.9,0,0,1,294,34a7,7,0,0,1-4.6-1.3,4.6,4.6,0,0,1-1.6-3.7V21.9a1.2,1.2,0,0,0-.1-.6l-.5-.4-.6-.2h-.6v-.7h7.3v.7h-.6l-.7.2a.8.8,0,0,0-.5.4,1.4,1.4,0,0,0-.1.6v7a4.2,4.2,0,0,0,.9,3,4,4,0,0,0,5.3-.1,4.3,4.3,0,0,0,1-3V23.9a7.6,7.6,0,0,0-.2-1.9,1.6,1.6,0,0,0-.5-.9l-.9-.4-.9-.2v-.8h6Z"/><path d="M307.1,34l-1.9-.3-1.4-.6-.3.7h-.8V30.1h.7l.5,1,.8,1,1,.7a2.7,2.7,0,0,0,1.3.3,2.1,2.1,0,0,0,1.3-.3,1.3,1.3,0,0,0,.4-1.1,1,1,0,0,0-.2-.6l-.5-.4-.8-.3L306,30l-1.1-.4-1-.6a2.8,2.8,0,0,1-1-2.2,2.6,2.6,0,0,1,1.2-2.2,5,5,0,0,1,3-.8l1.6.2,1.3.4.2-.6h.7l.2,3.3h-.7a4.1,4.1,0,0,0-1.2-1.8,2.6,2.6,0,0,0-1.8-.7,2,2,0,0,0-1.2.3,1,1,0,0,0-.4.9,1.1,1.1,0,0,0,.6,1.1l1.8.6a5.7,5.7,0,0,1,2.6,1.2,2.6,2.6,0,0,1,.8,2,2.9,2.9,0,0,1-1.3,2.5A5.6,5.6,0,0,1,307.1,34Z"/></svg>