<svg id="Layer_1" data-name="Layer 1" xmlns="http://www.w3.org/2000/svg" width="500" height="158" viewBox="0 0 500 158"><title>question-08 copy</title><path d="M23,19.3h2.9l1.9,6.1.7,2.4h.1l.6-2.4L31,19.3h2.9V35H31.6v-7c0-1.5.2-4.5.3-6h-.1l-1.1,3.8-1.7,4.9H27.8l-1.7-4.9L25,22.1h-.1c.1,1.5.4,4.5.4,6v7H23Z"/><path d="M42.9,22.9a5.9,5.9,0,0,1,5.9,6.2,5.9,5.9,0,1,1-11.9,0A5.9,5.9,0,0,1,42.9,22.9Zm0,10.1c1.9,0,3.1-1.6,3.1-3.9s-1.2-3.9-3.1-3.9-3.1,1.6-3.1,3.9S40.9,33,42.9,33Z"/><path d="M52,23.2h2.3l.2,1.8h.1a5.9,5.9,0,0,1,4.2-2.1c2.7,0,4,1.7,4,4.8V35H60.1V28.1c0-1.9-.6-2.8-2.2-2.8s-1.9.6-3,1.7v8H52Z"/><path d="M67.3,31.7a7.7,7.7,0,0,0,4.6,1.5c1.8,0,2.7-.6,2.7-1.4s-1.1-1.3-3.5-1.9-4.3-1.6-4.3-3.4,1.9-3.5,5.2-3.5a9.2,9.2,0,0,1,4.9,1.6l-1.3,1.7A6.5,6.5,0,0,0,71.9,25c-1.8,0-2.5.6-2.5,1.3s1.4,1.3,3.3,1.8,4.5,1.6,4.5,3.6-1.9,3.6-5.5,3.6A10.5,10.5,0,0,1,66,33.5Z"/><path d="M83.4,25.4H80.3V23.3h3.3l.4-3.2h2.3v3.2h5.4v2.2H86.2v4.8c0,1.9.7,2.8,2.7,2.8a7.3,7.3,0,0,0,2.6-.5l.5,2a11.8,11.8,0,0,1-3.8.7c-3.6,0-4.8-2-4.8-5Z"/><path d="M100.8,22.9c3.5,0,5.5,2.3,5.5,5.6a7.8,7.8,0,0,1-.1,1.3H97.6a3.7,3.7,0,0,0,4,3.3,6.5,6.5,0,0,0,3.3-1l.9,1.7a8.8,8.8,0,0,1-4.6,1.4c-3.6,0-6.4-2.3-6.4-6.2A6,6,0,0,1,100.8,22.9Zm2.9,5.1c0-1.9-1-3-2.9-3a3.3,3.3,0,0,0-3.3,3Z"/><path d="M110.8,23.2h2.3l.2,2.7h.1a5.9,5.9,0,0,1,5-3,4.8,4.8,0,0,1,2.3.5l-.6,2.3a6.1,6.1,0,0,0-2.1-.4c-1.6,0-3.2.8-4.4,3.1V35h-2.8Z"/><path d="M146.3,27.5c-.1-1.3-.9-2.3-2.8-2.3a8.3,8.3,0,0,0-3.9,1.2l-1-1.8a10.9,10.9,0,0,1,5.4-1.6c3.3,0,5.1,1.8,5.1,5.1v7h-2.3l-.2-1.5h-.1a7.6,7.6,0,0,1-4.4,1.8c-2.3,0-3.9-1.4-3.9-3.5S140.5,27.9,146.3,27.5Zm-3.4,5.7a5.5,5.5,0,0,0,3.4-1.4V29.2c-4.2.3-5.5,1.2-5.5,2.4S141.8,33.1,142.9,33.1Z"/><path d="M155.4,25.4h-3.1V23.3h3.3l.4-3.2h2.3v3.2h5.4v2.2h-5.4v4.8c0,1.9.7,2.8,2.7,2.8a7.3,7.3,0,0,0,2.6-.5l.5,2a11.8,11.8,0,0,1-3.8.7c-3.6,0-4.8-2-4.8-5Z"/><path d="M169.8,25.4h-3.1V23.3h3.3l.4-3.2h2.3v3.2h5.4v2.2h-5.4v4.8c0,1.9.7,2.8,2.7,2.8a7.3,7.3,0,0,0,2.6-.5l.5,2a11.8,11.8,0,0,1-3.8.7c-3.6,0-4.8-2-4.8-5Z"/><path d="M189.5,27.5c-.1-1.3-.9-2.3-2.8-2.3a8.3,8.3,0,0,0-3.9,1.2l-1-1.8a10.9,10.9,0,0,1,5.4-1.6c3.3,0,5.1,1.8,5.1,5.1v7H190l-.2-1.5h-.1a7.6,7.6,0,0,1-4.4,1.8c-2.3,0-3.9-1.4-3.9-3.5S183.7,27.9,189.5,27.5Zm-3.4,5.7a5.5,5.5,0,0,0,3.4-1.4V29.2c-4.2.3-5.5,1.2-5.5,2.4S185,33.1,186.1,33.1Z"/><path d="M202.5,22.9a6.3,6.3,0,0,1,4.4,1.7l-1.3,1.7a4.5,4.5,0,0,0-2.9-1.1,3.8,3.8,0,0,0-4,3.9,3.7,3.7,0,0,0,3.9,3.9,5.5,5.5,0,0,0,3.4-1.3l1.2,1.8a7.3,7.3,0,0,1-4.8,1.8c-3.7,0-6.5-2.3-6.5-6.2S198.9,22.9,202.5,22.9Z"/><path d="M210.6,18.1h2.8V28.7h.1l5.3-5.4h3.1L217.3,28l5.1,7h-3l-3.7-5.2L213.4,32v3h-2.8Z"/><path d="M225.6,31.7a7.7,7.7,0,0,0,4.6,1.5c1.8,0,2.7-.6,2.7-1.4s-1.1-1.3-3.5-1.9-4.3-1.6-4.3-3.4,1.9-3.5,5.2-3.5a9.2,9.2,0,0,1,4.9,1.6l-1.3,1.7a6.5,6.5,0,0,0-3.6-1.2c-1.8,0-2.5.6-2.5,1.3s1.4,1.3,3.3,1.8,4.5,1.6,4.5,3.6-1.9,3.6-5.5,3.6a10.5,10.5,0,0,1-5.8-1.8Z"/><path d="M29.8,61.5V63H22.7V61.5h2.8V54.8H23.3V53.7a8.1,8.1,0,0,0,2.6-.8h1.3v8.7Z"/><path d="M37.4,54.4H31.9V52.8h7.5v1.1c-2.7,3-3.2,5.1-3.4,9.1H34.2A13.2,13.2,0,0,1,37.4,54.4Z"/><path d="M47,54.4H41.5V52.8H49v1.1c-2.7,3-3.2,5.1-3.4,9.1H43.8A13.2,13.2,0,0,1,47,54.4Z"/><path d="M51.7,60.6a4,4,0,0,0,2.7,1.1,2,2,0,0,0,2.3-2c0-1.2-.9-1.9-2.2-1.9a3.3,3.3,0,0,0-1.9.6l-.9-.6.3-5h6v1.6H53.6l-.2,2.5a4,4,0,0,1,1.6-.3c1.9,0,3.5,1,3.5,3.2a3.6,3.6,0,0,1-3.9,3.5,5.2,5.2,0,0,1-3.7-1.4Z"/><path d="M69.6,57.6h9V59h-9Z"/><path d="M97.1,60.8V63H89.7V60.8h2.5V55.5H90.1V53.8a7.8,7.8,0,0,0,2.8-1h2v7.9Z"/><path d="M102.9,59a2.1,2.1,0,1,1-2.1,2.1A2,2,0,0,1,102.9,59Z"/><path d="M110.4,58h0a2.9,2.9,0,0,1-1.5-2.4c0-1.8,1.5-2.9,3.6-2.9s3.4,1.1,3.4,2.8a2.6,2.6,0,0,1-1.4,2.1h0a2.9,2.9,0,0,1,1.9,2.7c0,1.6-1.4,2.8-3.9,2.8s-3.8-1.1-3.8-2.8A2.7,2.7,0,0,1,110.4,58Zm2.1,3.3c.7,0,1.3-.3,1.3-1.1s-.8-1-2.2-1.5a1.9,1.9,0,0,0-.7,1.4C111,60.9,111.7,61.3,112.5,61.3Zm1.2-5.6a1.1,1.1,0,0,0-1.2-1.1c-.6,0-1.1.3-1.1,1s.7,1,1.8,1.4A1.9,1.9,0,0,0,113.7,55.7Z"/><path d="M118.2,52.6h2.7l.9,3.4.3,1.3h0l.3-1.3.8-3.4h2.7V63h-2.2V60.6c0-1.2.2-4.1.4-5.3h0l-.9,3.1-.5,1.9h-1.2l-.5-1.9-.8-3.1H120c.1,1.2.4,4.1.4,5.3V63h-2.2Z"/><path d="M29.8,80.7v1.5H22.7V80.7h2.8V74H23.3V72.9A8,8,0,0,0,26,72h1.3v8.7Z"/><path d="M37.4,73.6H31.9V72h7.5v1.1c-2.7,3-3.2,5.1-3.4,9.1H34.2A13.2,13.2,0,0,1,37.4,73.6Z"/><path d="M47,73.6H41.5V72H49v1.1c-2.7,3-3.2,5.1-3.4,9.1H43.8A13.2,13.2,0,0,1,47,73.6Z"/><path d="M51.7,79.8a4,4,0,0,0,2.7,1.1,2,2,0,0,0,2.3-2c0-1.2-.9-1.9-2.2-1.9a3.3,3.3,0,0,0-1.9.6l-.9-.6.3-5h6v1.6H53.6L53.4,76a4.1,4.1,0,0,1,1.6-.3c1.9,0,3.5,1,3.5,3.2a3.6,3.6,0,0,1-3.9,3.5A5.2,5.2,0,0,1,50.9,81Z"/><path d="M69.6,76.8h9v1.5h-9Z"/><path d="M89.3,80.6C92,78.4,94,76.7,94,75.3S93.4,74,92.5,74a3,3,0,0,0-1.9,1l-1.5-1.5a4.7,4.7,0,0,1,3.7-1.6c2.2,0,3.7,1.3,3.7,3.3s-1.7,3.4-3.4,4.8h3.9v2.3H89.3Z"/><path d="M102.9,78.2a2.1,2.1,0,1,1-2.1,2.1A2,2,0,0,1,102.9,78.2Z"/><path d="M108.5,77.1c0-3.5,1.6-5.2,4-5.2s4,1.7,4,5.2-1.6,5.3-4,5.3S108.5,80.6,108.5,77.1Zm2.4,0c0,2.5.7,3.2,1.6,3.2s1.6-.7,1.6-3.2-.7-3.1-1.6-3.1S110.9,74.5,110.9,77.1Zm.3,0a1.3,1.3,0,1,1,1.3,1.3A1.2,1.2,0,0,1,111.2,77.1Z"/><path d="M118.2,71.8h2.7l.9,3.4.3,1.3h0l.3-1.3.8-3.4h2.7V82.2h-2.2V79.8c0-1.2.2-4.1.4-5.3h0l-.9,3.1-.5,1.9h-1.2l-.5-1.9-.8-3.1H120c.1,1.2.4,4,.4,5.3v2.4h-2.2Z"/><path d="M29.8,99.9v1.5H22.7V99.9h2.8V93.2H23.3V92.1a8.1,8.1,0,0,0,2.6-.8h1.3v8.7Z"/><path d="M37.4,92.8H31.9V91.2h7.5v1.1c-2.7,3-3.2,5.1-3.4,9.1H34.2A13.2,13.2,0,0,1,37.4,92.8Z"/><path d="M47,92.8H41.5V91.2H49v1.1c-2.7,3-3.2,5.1-3.4,9.1H43.8A13.2,13.2,0,0,1,47,92.8Z"/><path d="M56.6,92.8H51.1V91.2h7.5v1.1c-2.7,3-3.2,5.1-3.4,9.1H53.4A13.2,13.2,0,0,1,56.6,92.8Z"/><path d="M69.6,96h9v1.5h-9Z"/><path d="M89.3,99.8C92,97.6,94,95.9,94,94.5s-.6-1.3-1.5-1.3a3,3,0,0,0-1.9,1l-1.5-1.5a4.7,4.7,0,0,1,3.7-1.6c2.2,0,3.7,1.3,3.7,3.3s-1.7,3.4-3.4,4.8h3.9v2.3H89.3Z"/><path d="M102.9,97.4a2.1,2.1,0,1,1-2.1,2.1A2,2,0,0,1,102.9,97.4Z"/><path d="M116.7,99.1h-1.2v2.3h-2.6V99.1h-4.8V97.2l3.9-6h3.4V97h1.2ZM112.9,97V95.9c0-.7.1-1.7.1-2.4H113l-1.1,1.8L110.8,97Z"/><path d="M118.2,91h2.7l.9,3.4.3,1.3h0l.3-1.3.8-3.4h2.7v10.4h-2.2V99c0-1.2.2-4.1.4-5.3h0l-.9,3.1-.5,1.9h-1.2l-.5-1.9-.8-3.1H120c.1,1.2.4,4.1.4,5.3v2.4h-2.2Z"/><path d="M29.8,119.1v1.5H22.7v-1.5h2.8v-6.7H23.3v-1.2a8.1,8.1,0,0,0,2.6-.8h1.3v8.7Z"/><path d="M37.4,112H31.9v-1.6h7.5v1.1c-2.7,3-3.2,5.1-3.4,9.1H34.2A13.2,13.2,0,0,1,37.4,112Z"/><path d="M47,112H41.5v-1.6H49v1.1c-2.7,3-3.2,5.1-3.4,9.1H43.8A13.2,13.2,0,0,1,47,112Z"/><path d="M53.2,115.4h0a2.9,2.9,0,0,1-1.5-2.4c0-1.6,1.4-2.7,3.3-2.7s3.3,1.1,3.3,2.8a3,3,0,0,1-1.5,2.3h0a2.9,2.9,0,0,1,2,2.7c0,1.6-1.4,2.8-3.8,2.8s-3.8-1.2-3.8-2.8A3,3,0,0,1,53.2,115.4Zm1.8,4.1c1.2,0,2-.6,2-1.5s-1.2-1.5-2.8-2.1a2.3,2.3,0,0,0-1.4,1.9C52.7,118.8,53.6,119.5,54.9,119.5Zm1.7-6.4a1.5,1.5,0,0,0-1.7-1.6c-.9,0-1.6.5-1.6,1.4s1,1.5,2.4,1.9A2.3,2.3,0,0,0,56.6,113.1Z"/><path d="M69.6,115.2h9v1.5h-9Z"/><path d="M90.3,117.6a3.8,3.8,0,0,0,2.3,1c1,0,1.7-.3,1.7-1s-.6-1.2-2.8-1.2v-1.9c1.8,0,2.5-.4,2.5-1.2s-.5-.9-1.3-.9a3.2,3.2,0,0,0-2,.8l-1.4-1.7a5.5,5.5,0,0,1,3.5-1.3c2.3,0,3.9,1,3.9,2.9s-.7,1.7-1.9,2.2h0a2.6,2.6,0,0,1,2.2,2.4c0,1.9-2,3-4.2,3a5,5,0,0,1-3.8-1.4Z"/><path d="M102.9,116.6a2.1,2.1,0,1,1-2.1,2.1A2,2,0,0,1,102.9,116.6Z"/><path d="M116.3,118.4v2.2h-7.5v-2.2h2.5v-5.2h-2.1v-1.7a7.8,7.8,0,0,0,2.8-1h2v7.9Z"/><path d="M118.2,110.2h2.7l.9,3.4.3,1.3h0l.3-1.3.8-3.4h2.7v10.4h-2.2v-2.4c0-1.2.2-4.1.4-5.3h0l-.9,3.1-.5,1.9h-1.2l-.5-1.9-.8-3.1H120c.1,1.2.4,4.1.4,5.3v2.4h-2.2Z"/><path d="M29.8,138.3v1.5H22.7v-1.5h2.8v-6.7H23.3v-1.2a8,8,0,0,0,2.6-.8h1.3v8.7Z"/><path d="M37.4,131.2H31.9v-1.6h7.5v1.1c-2.7,3-3.2,5.1-3.4,9.1H34.2A13.2,13.2,0,0,1,37.4,131.2Z"/><path d="M47,131.2H41.5v-1.6H49v1.1c-2.7,3-3.2,5.1-3.4,9.1H43.8A13.2,13.2,0,0,1,47,131.2Z"/><path d="M52.2,137.7a2.9,2.9,0,0,0,1.9.8c1.4,0,2.7-1,2.8-3.8a4.1,4.1,0,0,1-2.7,1.2,2.9,2.9,0,0,1-3.2-3.2,3.4,3.4,0,0,1,3.5-3.3c2.2,0,4,1.5,4,5s-2.1,5.6-4.3,5.6a4.4,4.4,0,0,1-3.1-1.2Zm4.6-4.3c-.2-1.8-1.1-2.5-2.2-2.5a1.8,1.8,0,0,0-1.9,1.9,1.7,1.7,0,0,0,1.8,1.8A3,3,0,0,0,56.8,133.4Z"/><path d="M69.6,134.4h9v1.5h-9Z"/><path d="M90.3,136.8a3.8,3.8,0,0,0,2.3,1c1,0,1.7-.3,1.7-1s-.6-1.2-2.8-1.2v-1.9c1.8,0,2.5-.4,2.5-1.2s-.5-.9-1.3-.9a3.2,3.2,0,0,0-2,.8l-1.4-1.7a5.5,5.5,0,0,1,3.5-1.3c2.3,0,3.9,1,3.9,2.9s-.7,1.7-1.9,2.2h0A2.6,2.6,0,0,1,97,137c0,1.9-2,3-4.2,3a5,5,0,0,1-3.8-1.4Z"/><path d="M102.9,135.8a2.1,2.1,0,1,1-2.1,2.1A2,2,0,0,1,102.9,135.8Z"/><path d="M110.4,134.8h0a2.9,2.9,0,0,1-1.5-2.4c0-1.8,1.5-2.9,3.6-2.9s3.4,1.1,3.4,2.8a2.6,2.6,0,0,1-1.4,2.1h0a2.9,2.9,0,0,1,1.9,2.7c0,1.6-1.4,2.8-3.9,2.8s-3.8-1.1-3.8-2.8A2.7,2.7,0,0,1,110.4,134.8Zm2.1,3.3c.7,0,1.3-.3,1.3-1.1s-.8-1-2.2-1.5a1.9,1.9,0,0,0-.7,1.4C111,137.7,111.7,138.1,112.5,138.1Zm1.2-5.6a1.1,1.1,0,0,0-1.2-1.1c-.6,0-1.1.3-1.1,1s.7,1,1.8,1.4A1.9,1.9,0,0,0,113.7,132.5Z"/><path d="M118.2,129.4h2.7l.9,3.4.3,1.3h0l.3-1.3.8-3.4h2.7v10.4h-2.2v-2.4c0-1.2.2-4.1.4-5.3h0l-.9,3.1-.5,1.9h-1.2l-.5-1.9-.8-3.1H120c.1,1.2.4,4,.4,5.3v2.4h-2.2Z"/></svg>