<svg id="Layer_1" data-name="Layer 1" xmlns="http://www.w3.org/2000/svg" width="500" height="300" viewBox="0 0 500 300"><title>question-08</title><rect x="112.3" y="175.2" width="71.9" height="33.7" transform="translate(-43.8 340.3) rotate(-90)" fill="#aca594"/><rect x="165.8" y="173.2" width="76" height="33.7" transform="translate(13.8 393.8) rotate(-90)" fill="#aca594"/><rect x="213.6" y="165.5" width="91.3" height="33.7" transform="translate(76.9 441.6) rotate(-90)" fill="#aca594"/><rect x="256.4" y="152.8" width="116.7" height="33.7" transform="translate(145.1 484.4) rotate(-90)" fill="#aca594"/><rect x="299.4" y="140.3" width="141.6" height="33.7" transform="translate(213.1 527.4) rotate(-90)" fill="#aca594"/><polyline points="402.4 228 131.4 228 131.4 71.1" fill="none" stroke="#4d4d4d" stroke-miterlimit="10" stroke-width="6"/><path d="M144.8,245.8h-1.9v-8.9h1.9v3.4h8.4v-2.7h1.4a10,10,0,0,0,1,3.3v1.7H144.8Z"/><path d="M153.7,255.3v-6.9h1.9v9.4h-1.4c-3.7-3.3-6.3-4-11.3-4.2v-2.3A16.5,16.5,0,0,1,153.7,255.3Z"/><path d="M153.7,267.3v-6.9h1.9v9.4h-1.4c-3.7-3.3-6.3-4-11.3-4.2v-2.3A16.5,16.5,0,0,1,153.7,267.3Z"/><path d="M145.9,273.2a5,5,0,0,0-1.4,3.3c0,1.6.9,2.8,2.4,2.8s2.4-1.1,2.4-2.7a4.2,4.2,0,0,0-.7-2.4l.7-1.1,6.3.4v7.5h-1.9v-5.5l-3.1-.3a5,5,0,0,1,.4,2c0,2.4-1.2,4.4-4,4.4s-4.4-2.3-4.4-4.9a6.5,6.5,0,0,1,1.8-4.7Z"/><path d="M108.3,190.7v1.9H99.4v-1.9h3.4v-8.4h-2.7v-1.4a10,10,0,0,0,3.3-1h1.7v10.8Z"/><path d="M111.1,179.5h2.4l1.6,5.1.6,2h.1l.5-2,1.5-5.1h2.4v13.1h-1.9v-5.8c0-1.2.2-3.7.3-5h-.1l-.9,3.2-1.4,4.1H115l-1.4-4.1-.9-3.2h-.1c.1,1.2.3,3.7.3,5v5.8h-1.9Z"/><path d="M110.9,222.6c0-4.3,1.8-6.5,4.7-6.5s4.7,2.2,4.7,6.5-1.8,6.7-4.7,6.7S110.9,226.8,110.9,222.6Zm2.1,0c0,3.5,1.1,4.9,2.6,4.9s2.6-1.4,2.6-4.9-1.1-4.7-2.6-4.7S113,219.1,113,222.6Zm1.3-.1a1.4,1.4,0,1,1,1.4,1.4A1.3,1.3,0,0,1,114.2,222.5Z"/><path d="M98.9,154.9c4-3.4,6.4-5.6,6.4-7.6s-.8-2.2-2.4-2.2a4.1,4.1,0,0,0-2.8,1.4l-1.3-1.3a5.7,5.7,0,0,1,4.4-2c2.6,0,4.3,1.5,4.3,3.9s-2.3,4.6-5.3,7.2h5.9v2H98.9Z"/><path d="M111.1,143.1h2.4l1.6,5.1.6,2h.1l.5-2,1.5-5.1h2.4v13.1h-1.9v-5.8c0-1.2.2-3.7.3-5h-.1l-.9,3.2-1.4,4.1H115l-1.4-4.1-.9-3.2h-.1c.1,1.2.3,3.7.3,5v5.8h-1.9Z"/><path d="M99.7,116.8a5,5,0,0,0,3.4,1.4c1.6,0,2.7-.7,2.7-1.9s-1.1-2.2-4.2-2.2v-1.7c2.7,0,3.8-.9,3.8-2s-.9-1.7-2.2-1.7a4.4,4.4,0,0,0-2.9,1.2L99,108.5a6.5,6.5,0,0,1,4.2-1.6c2.6,0,4.5,1.2,4.5,3.4s-1,2.4-2.6,2.9h0c1.7.4,3,1.5,3,3.2s-2.2,3.7-4.8,3.7a6.2,6.2,0,0,1-4.7-1.8Z"/><path d="M111.1,106.8h2.4l1.6,5.1.6,2h.1l.5-2,1.5-5.1h2.4v13.1h-1.9V114c0-1.2.2-3.7.3-5h-.1l-.9,3.2-1.4,4.1H115l-1.4-4.1-.9-3.2h-.1c.1,1.2.3,3.7.3,5v5.8h-1.9Z"/><path d="M108.6,80.2h-1.8v3.3h-2.2V80.2H98.3V78.6l5.8-7.9h2.7v7.7h1.8Zm-4-1.8v-3c0-.8.1-1.8.1-2.5h-.1l-1.3,2-2.7,3.5Z"/><path d="M111.1,70.4h2.4l1.6,5.1.6,2h.1l.5-2,1.5-5.1h2.4V83.5h-1.9V77.7c0-1.2.2-3.7.3-5h-.1l-.9,3.2-1.4,4.1H115l-1.4-4.1-.9-3.2h-.1c.1,1.2.3,3.7.3,5v5.8h-1.9Z"/><path d="M201.4,245.8h-1.9v-8.9h1.9v3.4h8.4v-2.7h1.4a10,10,0,0,0,1,3.3v1.7H201.4Z"/><path d="M210.3,255.3v-6.9h1.9v9.4h-1.4c-3.7-3.3-6.3-4-11.3-4.2v-2.3A16.5,16.5,0,0,1,210.3,255.3Z"/><path d="M210.3,267.3v-6.9h1.9v9.4h-1.4c-3.7-3.3-6.3-4-11.3-4.2v-2.3A16.5,16.5,0,0,1,210.3,267.3Z"/><path d="M209.7,280.5a3.6,3.6,0,0,0,1-2.4c0-1.8-1.2-3.4-4.7-3.5a5,5,0,0,1,1.5,3.3,3.6,3.6,0,0,1-3.9,4,4.2,4.2,0,0,1-4.2-4.4c0-2.7,1.9-5,6.2-5s7,2.6,7,5.4a5.5,5.5,0,0,1-1.4,3.8Zm-6.2-.7a2,2,0,0,0,2.3-2.3,3.7,3.7,0,0,0-1.5-2.8c-2.2.3-3.2,1.4-3.2,2.8A2.2,2.2,0,0,0,203.5,279.8Z"/><path d="M255.8,245.8h-1.9v-8.9h1.9v3.4h8.4v-2.7h1.4a10,10,0,0,0,1,3.3v1.7H255.8Z"/><path d="M264.7,255.3v-6.9h1.9v9.4h-1.4c-3.7-3.3-6.3-4-11.3-4.2v-2.3A16.5,16.5,0,0,1,264.7,255.3Z"/><path d="M264.7,267.3v-6.9h1.9v9.4h-1.4c-3.7-3.3-6.3-4-11.3-4.2v-2.3A16.5,16.5,0,0,1,264.7,267.3Z"/><path d="M264.7,279.3v-6.9h1.9v9.4h-1.4c-3.7-3.3-6.3-4-11.3-4.2v-2.3A16.5,16.5,0,0,1,264.7,279.3Z"/><path d="M311.3,245.8h-1.9v-8.9h1.9v3.4h8.4v-2.7h1.4a10,10,0,0,0,1,3.3v1.7H311.3Z"/><path d="M320.2,255.3v-6.9h1.9v9.4h-1.4c-3.7-3.3-6.3-4-11.3-4.2v-2.3A16.5,16.5,0,0,1,320.2,255.3Z"/><path d="M320.2,267.3v-6.9h1.9v9.4h-1.4c-3.7-3.3-6.3-4-11.3-4.2v-2.3A16.5,16.5,0,0,1,320.2,267.3Z"/><path d="M315.9,275h.1a3.6,3.6,0,0,1,3-1.9c2.1,0,3.4,1.7,3.4,4.1s-1.4,4.1-3.4,4.1a3.7,3.7,0,0,1-2.9-1.9h-.1c-.7,1.4-1.6,2.5-3.3,2.5s-3.5-1.7-3.5-4.7,1.4-4.7,3.5-4.7S315.3,273.7,315.9,275Zm-5.1,2.2c0,1.5.7,2.5,1.9,2.5s1.9-1.5,2.6-3.5a2.8,2.8,0,0,0-2.4-1.7C311.6,274.5,310.8,275.6,310.8,277.2Zm8,2.2a1.9,1.9,0,0,0,1.9-2.2c0-1.2-.6-2-1.7-2s-1.8,1.3-2.4,3A2.8,2.8,0,0,0,318.8,279.4Z"/><path d="M366.8,245.8h-1.9v-8.9h1.9v3.4h8.4v-2.7h1.4a10,10,0,0,0,1,3.3v1.7H366.8Z"/><path d="M375.7,255.3v-6.9h1.9v9.4h-1.4c-3.7-3.3-6.3-4-11.3-4.2v-2.3A16.5,16.5,0,0,1,375.7,255.3Z"/><path d="M375.7,267.3v-6.9h1.9v9.4h-1.4c-3.7-3.3-6.3-4-11.3-4.2v-2.3A16.5,16.5,0,0,1,375.7,267.3Z"/><path d="M367.5,273.8a3.6,3.6,0,0,0-1,2.4c0,1.8,1.2,3.3,4.7,3.5a5.2,5.2,0,0,1-1.5-3.3,3.6,3.6,0,0,1,3.9-4,4.2,4.2,0,0,1,4.2,4.4c0,2.7-1.9,5-6.2,5s-7-2.6-7-5.4a5.5,5.5,0,0,1,1.4-3.8Zm5.4,5.8c2.2-.3,3.2-1.4,3.2-2.8a2.2,2.2,0,0,0-2.4-2.3,2.1,2.1,0,0,0-2.3,2.3A3.7,3.7,0,0,0,372.9,279.6Z"/><path d="M161.5,20.9h2.4l1.6,5.1.6,2h.1l.5-2,1.5-5.1h2.4V34h-1.9V28.2c0-1.2.2-3.7.3-5h-.1l-.9,3.2-1.4,4.1h-1.1L164,26.4l-.9-3.2H163c.1,1.2.3,3.7.3,5V34h-1.9Z"/><path d="M178,23.9a4.9,4.9,0,0,1,4.9,5.2,4.9,4.9,0,1,1-9.9,0A4.9,4.9,0,0,1,178,23.9Zm0,8.4c1.6,0,2.6-1.3,2.6-3.3s-1-3.3-2.6-3.3-2.6,1.3-2.6,3.3S176.4,32.4,178,32.4Z"/><path d="M185.6,24.2h1.9l.2,1.5h.1a4.9,4.9,0,0,1,3.5-1.7c2.3,0,3.3,1.4,3.3,4V34h-2.3V28.2c0-1.6-.5-2.3-1.8-2.3a3.4,3.4,0,0,0-2.5,1.4V34h-2.3Z"/><path d="M198.3,31.3a6.4,6.4,0,0,0,3.8,1.2c1.5,0,2.2-.5,2.2-1.2s-.9-1.1-2.9-1.6-3.6-1.3-3.6-2.8,1.6-2.9,4.3-2.9a7.7,7.7,0,0,1,4.1,1.3l-1.1,1.4a5.4,5.4,0,0,0-3-1c-1.5,0-2.1.5-2.1,1.1s1.2,1.1,2.8,1.5,3.8,1.3,3.8,3-1.6,3-4.6,3a8.8,8.8,0,0,1-4.8-1.5Z"/><path d="M211.8,26h-2.6V24.3h2.7l.3-2.7h1.9v2.7h4.5V26h-4.5v4c0,1.6.6,2.4,2.3,2.4a6.1,6.1,0,0,0,2.2-.4l.4,1.7a9.8,9.8,0,0,1-3.2.6c-3,0-4-1.7-4-4.2Z"/><path d="M226.3,23.9a4.3,4.3,0,0,1,4.6,4.7,6.5,6.5,0,0,1-.1,1.1h-7.1a3.1,3.1,0,0,0,3.3,2.8,5.5,5.5,0,0,0,2.8-.8l.8,1.4a7.4,7.4,0,0,1-3.8,1.1c-3,0-5.4-1.9-5.4-5.1A5,5,0,0,1,226.3,23.9Zm2.4,4.3a2.2,2.2,0,0,0-2.4-2.5,2.7,2.7,0,0,0-2.8,2.5Z"/><path d="M234.6,24.2h1.9l.2,2.2h.1a4.9,4.9,0,0,1,4.2-2.5,4,4,0,0,1,1.9.4l-.5,1.9a5.1,5.1,0,0,0-1.8-.3c-1.3,0-2.7.7-3.7,2.6V34h-2.3Z"/><path d="M264.2,27.7c-.1-1.1-.7-1.9-2.3-1.9a7,7,0,0,0-3.2,1l-.8-1.5a9.1,9.1,0,0,1,4.5-1.4c2.7,0,4.2,1.5,4.2,4.2V34h-1.9l-.2-1.2h-.1a6.3,6.3,0,0,1-3.7,1.5c-1.9,0-3.3-1.2-3.3-2.9S259.4,28.1,264.2,27.7Zm-2.8,4.7a4.6,4.6,0,0,0,2.8-1.2V29.2c-3.5.2-4.6,1-4.6,2S260.4,32.5,261.4,32.5Z"/><path d="M271.8,26h-2.6V24.3h2.7l.3-2.7h1.9v2.7h4.5V26h-4.5v4c0,1.6.6,2.4,2.3,2.4a6,6,0,0,0,2.2-.4l.4,1.7a9.8,9.8,0,0,1-3.2.6c-3,0-4-1.7-4-4.2Z"/><path d="M283.8,26h-2.6V24.3h2.7l.3-2.7h1.9v2.7h4.5V26h-4.5v4c0,1.6.6,2.4,2.3,2.4a6,6,0,0,0,2.2-.4l.4,1.7a9.8,9.8,0,0,1-3.2.6c-3,0-4-1.7-4-4.2Z"/><path d="M300.2,27.7c-.1-1.1-.7-1.9-2.3-1.9a6.9,6.9,0,0,0-3.2,1l-.8-1.5a9.1,9.1,0,0,1,4.5-1.4c2.7,0,4.2,1.5,4.2,4.2V34h-1.9l-.2-1.2h-.1a6.3,6.3,0,0,1-3.7,1.5c-1.9,0-3.3-1.2-3.3-2.9S295.4,28.1,300.2,27.7Zm-2.8,4.7a4.6,4.6,0,0,0,2.8-1.2V29.2c-3.5.2-4.6,1-4.6,2S296.4,32.5,297.4,32.5Z"/><path d="M311,23.9a5.2,5.2,0,0,1,3.6,1.4l-1.1,1.4a3.7,3.7,0,0,0-2.4-.9,3.1,3.1,0,0,0-3.3,3.3,3.1,3.1,0,0,0,3.3,3.3,4.6,4.6,0,0,0,2.8-1.1l1,1.5a6.1,6.1,0,0,1-4,1.5c-3.1,0-5.4-1.9-5.4-5.1S308,23.9,311,23.9Z"/><path d="M317.8,19.9h2.3v8.8h.1l4.4-4.5h2.6l-3.8,4,4.2,5.9h-2.5L322,29.7l-1.9,1.8V34h-2.3Z"/><path d="M330.3,31.3a6.4,6.4,0,0,0,3.8,1.2c1.5,0,2.2-.5,2.2-1.2s-.9-1.1-2.9-1.6-3.6-1.3-3.6-2.8,1.6-2.9,4.3-2.9a7.7,7.7,0,0,1,4.1,1.3l-1.1,1.4a5.4,5.4,0,0,0-3-1c-1.5,0-2.1.5-2.1,1.1s1.2,1.1,2.8,1.5,3.8,1.3,3.8,3-1.6,3-4.6,3a8.8,8.8,0,0,1-4.8-1.5Z"/></svg>