<svg xmlns="http://www.w3.org/2000/svg" width="256" height="256" viewBox="0 0 256 256"><circle cx="128" cy="128" r="124" fill="#c2bfbc"/><path fill="#333" stroke="#333" stroke-linecap="round" stroke-linejoin="round" stroke-width="3" d="M51.2 138.4c4.1 0 7.3 3 7.3 7.6a7.2 7.2 0 0 1-7.3 7.6c-4 0-7.2-3.1-7.2-7.6s3.2-7.6 7.2-7.6zM81 150.8v-.4a7.9 7.9 0 0 1-4.5-7.2c0-2.8 1.9-5.9 5.3-8.2v-.3a14.1 14.1 0 0 1-5.4-11.4c0-9.5 7.9-15.6 17.1-15.6a18.1 18.1 0 0 1 6.5 1h18.1v5.7h-11.7a13.4 13.4 0 0 1 4.1 9.2c0 9.4-7.5 15-17 15a18.2 18.2 0 0 1-7.3-1.6c-2.2 1.4-3.5 3-3.5 5 0 3.6 3.4 5.1 9.1 5.1h9.8c11.3 0 16.7 2.9 16.7 10.2s-9.5 15.3-24.3 15.3c-12.8 0-20.2-4.4-20.2-12.1 0-3.5 2.6-7 7.2-9.7zm13.5 16.7c10.2 0 16.5-4.5 16.5-9s-3.3-5.3-10-5.3h-8.5a26.5 26.5 0 0 1-6.7-.7c-4.1 2.2-5.6 4.7-5.6 7.3 0 4.6 5 7.7 14.3 7.7zm9.1-44.2a10.1 10.1 0 1 0-20.1 0c0 6.3 4.6 10.4 10 10.4s10.1-4.1 10.1-10.4zm23.7-14.6H155v43.8h-7.4v-37.7h-20.3zm17.3-14.6a5.9 5.9 0 0 1 11.8 0c0 3.4-2.6 5.6-5.9 5.6s-5.9-2.2-5.9-5.6zm37.7 20.7H170v-5.6l12.6-.5 1-12.2h6.1v12.2h21.4v6.1h-21.4v20.8c0 7.8 2.6 11.9 11 11.9a30.4 30.4 0 0 0 10.6-1.9l1.5 5.4a42.2 42.2 0 0 1-13.7 2.6c-12.7 0-16.8-7.3-16.8-18.1z"/></svg>