<svg xmlns="http://www.w3.org/2000/svg" width="256" height="256" viewBox="-77 179 256 256" enable-background="new -77 179 256 256"><style type="text/css">.st0{fill:none;} .st1{opacity:0.7;fill:#FF3333;} .st2{fill:#FFFFFF;}</style><path d="M49.5 426c17.4 0 43.5-7.7 43.5-52.9 0-10-.2-25.4-1.8-40.2 0-.4-26.9-2.7-42.2-2.7h1c-15.3 0-42.2 2.3-42.2 2.7-1.6 14.8-1.8 30.1-1.8 40.2 0 45.2 26.1 52.9 43.5 52.9"/><path d="M45.5 322.6c-14.8-.1-26.2.7-37.4 2.2 1.5-10.4 3.7-19.8 7-25.8 6.1-10.9 19.7-11.2 30.5-11l-.1 34.6zM53.4 322.5c14.8-.1 26.2.7 37.4 2.2-1.5-10.4-3.7-19.8-7-25.8-6.1-10.9-19.7-11.2-30.5-11l.1 34.6z"/><path class="st0" d="M5.3 373.1c0 45.3 26.1 52.9 43.5 52.9"/><path d="M53.4 287.9l-7.8.1v-2.7c0-4.3 0-8.8.7-13.4 1.2-7.8 4.8-14.9 10.7-21.1 2-2.1 4.1-3.8 6.2-5.5 1.3-1 2.5-2 3.6-3 2.6-2.4 4.7-4.4 5.1-7 .8-5-1.3-9.2-6.1-12.7-1.6-1.2-3.5-2.1-5.6-3.1-5.1-2.6-10.8-5.4-13.4-12.4-2.3-6.2-.9-13.7 3.7-19.1l5.9 4.9c-2.8 3.3-3.7 7.9-2.4 11.5 1.6 4.1 5.3 6 9.7 8.2 2.2 1.1 4.5 2.3 6.6 3.8 7.2 5.2 10.5 12.3 9.2 20.1-.9 5.5-4.7 8.9-7.5 11.5-1.3 1.2-2.7 2.3-4 3.3-2 1.6-3.8 3.1-5.4 4.8-4.8 5-7.7 10.8-8.6 17-.6 3.9-.4 7.9-.4 12.2l-.2 2.6z"/><circle class="st1" cx="51" cy="314.2" r="94"/><path class="st2" d="M40.5 307.6l-6.9-28c-.3-.9-.4-1.7-.4-2.4 0-2.2.6-4 1.8-5.5 1.2-1.5 2.6-2.3 4.1-2.3 2.8 0 5.6 1.9 8.6 5.7 3 3.8 5.8 8.9 8.3 15.3.7-.5 3.7-3.7 9-9.6 4.4-4.8 7.2-7.7 8.6-8.7 1.4-1 2.8-1.5 4.3-1.5 1.9 0 3.6.9 5.2 2.7 1.6 1.8 2.4 3.7 2.4 5.7 0 1.8-1 2.7-2.9 2.8-.7 0-1.1.1-1.2.2l-.3 1c-.1.3-.5.9-1.1 1.7-2 2.2-5 6.5-8.9 12.6-4.4 6.8-6.9 10.5-7.4 11.1-.9 1.1-1.4 2.3-1.4 3.5 0 2.5.8 5.9 2.4 10.2 1.6 4.3 3.8 8.4 6.6 12.3 1.2 1.8 1.8 3 1.8 3.6 0 .4-.3 1-.9 2 .3.3.4.7.4 1 0 .7-.2 1.2-.7 1.5-.4.3-1.4.9-3 1.7 0 2.1-.9 3.2-2.7 3.2-.8 0-1.8-.5-3.2-1.4-1.4-.9-2.3-1.8-2.8-2.6-.5-.7-1.1-1.1-1.6-1.3-.6-.1-1-.3-1.3-.6-.3-.2-1-.9-2.1-2.1-.1-.1-.5-.5-1.3-.9-1-.4-2-1.6-2.9-3.4-.5-1.2-1.7-3.3-3.7-6.5-11.8 12.8-18.1 19.5-18.7 20.2-.7.7-1.4 1.5-2.3 2.3-.9.8-1.6 1.2-2.2 1.2-.6 0-1.1-.2-1.5-.5-.4-.4-.6-1.6-.6-3.6l-.7-.8c-.2-.2-.4-.8-.7-1.7l-1.1-.5c-.6-1.1-1.6-2.2-2.9-3.4l-.1-1.7-.3-1.5c0-.4.2-1.1.7-2.1.5-1 2.7-3.9 6.8-8.8s6.5-7.8 7.5-8.7c3.5-3.3 5.4-5.5 5.6-6.6.7-2.5 2-4.2 3.7-4.8z"/></svg>