<svg xmlns="http://www.w3.org/2000/svg" viewBox="0 0 256 256" width="256" height="256"><circle fill="#00deaf" cx="128" cy="128.001" r="128"/><path fill="#fff" d="M160.301 119.066c5.859 1.108 9.993 3.581 12.402 7.422 2.408 3.842 3.613 9.896 3.613 18.164 0 16.406-4.932 29.834-14.795 40.283s-22.478 15.674-37.842 15.674c-6.055 0-11.931-1.091-17.627-3.271-5.698-2.181-10.596-5.225-14.697-9.131-4.688-4.297-8.203-8.838-10.547-13.623s-3.516-9.684-3.516-14.697c0-5.599 1.204-9.928 3.613-12.988 2.408-3.06 6.216-5.143 11.426-6.25-.977-2.278-1.694-4.199-2.148-5.762-.456-1.562-.684-2.767-.684-3.613 0-2.93 1.546-5.923 4.639-8.984 3.091-3.06 6.006-4.59 8.74-4.59 1.172 0 2.408.212 3.711.635 1.302.424 2.798 1.123 4.492 2.1-5.014-14.192-8.659-25.146-10.938-32.861-2.28-7.715-3.418-13.037-3.418-15.967 0-4.036 1.041-7.242 3.125-9.619 2.083-2.376 4.915-3.564 8.496-3.564 6.119 0 13.867 13.672 23.242 41.016 1.627 4.688 2.864 8.301 3.711 10.84.716-2.017 1.725-4.883 3.027-8.594 9.375-27.083 17.447-40.625 24.219-40.625 3.32 0 5.973 1.123 7.959 3.369 1.985 2.246 2.979 5.258 2.979 9.033 0 2.866-1.091 8.105-3.271 15.723-2.181 7.615-5.484 17.576-9.911 29.88zm-69.922 39.844c.911 1.107 2.181 2.734 3.809 4.883 4.297 5.925 8.267 8.887 11.914 8.887 1.236 0 2.344-.391 3.32-1.172s1.465-1.595 1.465-2.441c0-.977-.651-2.604-1.953-4.883-1.303-2.278-3.093-4.85-5.371-7.715-2.604-3.32-4.77-5.745-6.494-7.275-1.726-1.529-3.11-2.295-4.15-2.295-2.28 0-4.379 1.221-6.299 3.662-1.921 2.441-2.881 5.322-2.881 8.643 0 2.67.667 5.648 2.002 8.936 1.333 3.288 3.271 6.592 5.811 9.912 3.841 5.144 8.609 9.099 14.307 11.865 5.696 2.768 11.995 4.15 18.896 4.15 12.695 0 23.323-4.736 31.885-14.209 8.561-9.473 12.842-21.338 12.842-35.596 0-4.361-.326-7.828-.977-10.4-.651-2.571-1.726-4.443-3.223-5.615-2.67-2.212-7.861-4.199-15.576-5.957s-15.771-2.637-24.17-2.637c-2.344 0-4.004.391-4.98 1.172s-1.465 2.116-1.465 4.004c0 4.428 2.474 7.634 7.422 9.619 4.947 1.986 12.955 2.979 24.023 2.979h4.004c.911 0 1.644.342 2.197 1.025.553.684.928 1.709 1.123 3.076-1.107 1.042-3.386 2.23-6.836 3.564-3.451 1.335-6.088 2.653-7.91 3.955-3.906 2.865-7.048 6.267-9.424 10.205-2.377 3.939-3.564 7.666-3.564 11.182 0 2.148.504 4.736 1.514 7.764 1.009 3.027 1.514 4.899 1.514 5.615v.684l-.195.879c-2.865-.195-5.127-1.871-6.787-5.029-1.66-3.157-2.49-7.373-2.49-12.646v-.879c-.522.456-1.025.781-1.514.977s-1.025.293-1.611.293-1.14-.049-1.66-.146c-.522-.098-1.108-.244-1.758-.439.195.717.342 1.416.439 2.1s.146 1.221.146 1.611c0 2.409-.944 4.477-2.832 6.201-1.889 1.726-4.135 2.588-6.738 2.588-4.102 0-8.269-2.002-12.5-6.006-4.233-4.004-6.348-7.926-6.348-11.768 0-.716.081-1.351.244-1.904.16-.556.438-1.028.829-1.419zm29.297 2.344c1.106 0 2.115-.504 3.027-1.514.911-1.009 1.367-2.1 1.367-3.271 0-1.236-.896-4.117-2.686-8.643-1.792-4.524-4.021-8.968-6.689-13.33-1.953-3.255-3.874-5.713-5.762-7.373-1.889-1.66-3.679-2.49-5.371-2.49-1.367 0-2.881.864-4.541 2.588-1.66 1.726-2.49 3.337-2.49 4.834 0 1.562.813 3.906 2.441 7.031 1.626 3.125 3.809 6.445 6.543 9.961 2.864 3.842 5.566 6.836 8.105 8.984s4.557 3.223 6.056 3.223zm9.57-47.168l-10.547-30.469c-2.734-7.747-4.851-12.808-6.348-15.186-1.499-2.376-3.125-3.564-4.883-3.564-1.367 0-2.475.522-3.32 1.562-.847 1.042-1.27 2.441-1.27 4.199 0 2.995 1.138 8.203 3.418 15.625 2.278 7.422 5.696 17.155 10.254 29.199.391-.716.943-1.221 1.66-1.514.716-.293 1.692-.439 2.93-.439.391 0 1.172.034 2.344.098 1.172.066 3.092.23 5.762.489zm11.035 29.59c-2.8-.13-5.453-.423-7.959-.879-2.507-.455-4.899-1.106-7.178-1.953 1.041 2.084 1.968 4.167 2.783 6.25.813 2.084 1.48 4.135 2.002 6.152 1.562-1.953 3.206-3.727 4.932-5.322 1.725-1.595 3.532-3.011 5.42-4.248zm12.989-26.27c4.361-11.849 7.764-21.631 10.205-29.346s3.662-12.451 3.662-14.209c0-1.888-.407-3.353-1.221-4.395-.814-1.041-1.938-1.562-3.369-1.562-1.823 0-3.679 1.514-5.566 4.541-1.889 3.027-3.972 7.895-6.25 14.6l-9.766 28.223 12.305 2.148z"/></svg>
