<svg id="Layer_1" data-name="Layer 1" xmlns="http://www.w3.org/2000/svg" width="256" height="256" viewBox="0 0 256 256"><title>icon</title><circle cx="128" cy="128" r="124" fill="#c2bfbc"/><path d="M31.9,149v11H26.4V113.7H31l.5,4.2h.2c3-2.9,7.2-5,11.3-5,8.8,0,13.5,6.5,13.5,16.6S49.4,147,41.6,147a15.6,15.6,0,0,1-9.8-4.2Zm8.7-6.6c5.8,0,10.1-4.9,10.1-12.9s-2.7-12-9.2-12c-2.9,0-6.2,1.5-9.6,4.9v16.2A14,14,0,0,0,40.6,142.4Z" fill="#333" stroke="#333" stroke-linecap="round" stroke-linejoin="round" stroke-width="3"/><path d="M80,112.9c9.3,0,14.8,6.1,14.8,15.3a19.4,19.4,0,0,1-.2,3H69.1c.4,7,5.4,11.5,12.5,11.5a18,18,0,0,0,9.9-3l1.9,3.6A22.6,22.6,0,0,1,80.9,147c-9.6,0-17.5-6.4-17.5-17S71.5,112.9,80,112.9Zm9.7,14.7c0-6.6-3.6-10.3-9.6-10.3S69.8,121,69,127.5Z" fill="#333" stroke="#333" stroke-linecap="round" stroke-linejoin="round" stroke-width="3"/><path d="M105,113.7h4.6l.5,7.7h.2c3.4-5.2,8.5-8.5,14.5-8.5a13.4,13.4,0,0,1,6.4,1.3L130,119a15.4,15.4,0,0,0-6.1-1.1c-4.9,0-9.5,2.5-13.4,9.3v19.1H105Z" fill="#333" stroke="#333" stroke-linecap="round" stroke-linejoin="round" stroke-width="3"/><path d="M169.9,103.7a16.7,16.7,0,0,0-7.6-1.5c-5.8,0-8.2,3.2-8.2,8.5v2.9h13.7v4.5H154.1v28.1h-5.4V118.2h-9.3V114l9.3-.3v-2.7c0-8,4.2-13.2,13.1-13.2a24.2,24.2,0,0,1,9.4,1.9Z" fill="#333" stroke="#333" stroke-linecap="round" stroke-linejoin="round" stroke-width="3"/><path d="M172.7,156.9h-5l22-58.3h5Z" fill="#333" stroke="#333" stroke-linecap="round" stroke-linejoin="round" stroke-width="3"/><path d="M200.5,142.9c14.5-12.8,22.4-20.3,22.4-27.4,0-4.9-3-8.4-9.3-8.4-4,0-7.5,2.3-10.3,5.2l-3.1-3.1c3.8-3.9,8-6.5,14.1-6.5,8.6,0,13.9,5,13.9,12.6s-8,16-19.7,26.6c2.6-.2,5.4-.4,8-.4h14.1v4.8H200.5Z" fill="#333" stroke="#333" stroke-linecap="round" stroke-linejoin="round" stroke-width="3"/></svg>