<svg xmlns="http://www.w3.org/2000/svg" width="256" height="256" viewBox="0 0 256 256"><title>hex</title><circle cx="128" cy="128" r="124" fill="#c2bfbc"/><path d="M72.2,140.8H62v-7.4H73.2l2.5-19.2h-11v-7.5H76.4L79.5,83h6.9l-3,23.7h17.1L103.6,83h6.9l-3,23.7H118v7.5H106.7l-2.5,19.2h11.1v7.4H103.3l-3.1,26.4h-7l3.2-26.4H79.2l-3.1,26.4h-7Zm25-7.4,2.5-19.2H82.5l-2.3,19.2H97.3Z" fill="#333" stroke="#333" stroke-linecap="round" stroke-linejoin="round" stroke-width="3"/><path d="M141,140.8H130.8v-7.4h11.1l2.5-19.2h-11v-7.5h11.8L148.3,83h6.9l-3,23.7h17.1L172.4,83h6.9l-3,23.7h10.5v7.5H175.5L173,133.4h11.1v7.4H172.1L169,167.2h-7l3.2-26.4H148l-3.1,26.4h-7Zm25-7.4,2.5-19.2H151.3l-2.3,19.2H166Z" fill="#333" stroke="#333" stroke-linecap="round" stroke-linejoin="round" stroke-width="3"/></svg>