<svg id="Layer_1" data-name="Layer 1" xmlns="http://www.w3.org/2000/svg" width="256" height="256" viewBox="0 0 256 256"><title>icon</title><circle cx="128" cy="128" r="124" fill="#c2bfbc"/><path d="M48.7,131.5c-.1-4.6-2.5-8.5-9-8.5-4.4,0-8.8,2.1-11.9,4.1l-2.2-3.9c3.4-2.2,9.2-4.9,15.1-4.9,9.3,0,13.8,5.5,13.8,14V153H49.7l-.5-4.6H49c-3.8,2.9-8.6,5.5-13.4,5.5-6.4,0-11.6-3.6-11.6-9.7C24,136.6,31.1,132.9,48.7,131.5ZM37.1,149.3c3.9,0,7.7-1.8,11.6-5v-9c-14.6,1.2-19,4.1-19,8.5S33.2,149.3,37.1,149.3Z" fill="#333" stroke="#333" stroke-linecap="round" stroke-linejoin="round" stroke-width="3"/><path d="M57.9,103.2H75.3V142c0,5,2.6,7.1,6.7,7.1a15.5,15.5,0,0,0,6.4-1.6l1.5,4.3c-3.1,1.1-5.5,2-9.2,2-7.2,0-11.1-4.2-11.1-12.3V107.9H57.9Z" fill="#333" stroke="#333" stroke-linecap="round" stroke-linejoin="round" stroke-width="3"/><path d="M100.2,123.7H90.6v-4.3l9.8-.3.8-9.5H106V119h16.7v4.7H106v16.2c0,6.1,2,9.3,8.6,9.3a22.2,22.2,0,0,0,8.2-1.5l1.2,4.2a32,32,0,0,1-10.6,2c-9.9,0-13.1-5.7-13.1-14.1Z" fill="#333" stroke="#333" stroke-linecap="round" stroke-linejoin="round" stroke-width="3"/><path d="M130.4,121.7h30.1V126H130.4Zm0,15h30.1V141H130.4Z" fill="#333" stroke="#333" stroke-linecap="round" stroke-linejoin="round" stroke-width="3"/><path d="M169.3,112.6v-7.7h7.7v7.7L175,128.4h-3.9Zm16,0v-7.7H193v7.7l-1.8,15.8h-3.9Z" fill="#333" stroke="#333" stroke-linecap="round" stroke-linejoin="round" stroke-width="3"/><path d="M204.9,112.6v-7.7h7.7v7.7l-1.8,15.8h-3.9Zm16,0v-7.7h7.7v7.7l-1.7,15.8h-3.9Z" fill="#333" stroke="#333" stroke-linecap="round" stroke-linejoin="round" stroke-width="3"/></svg>