<svg xmlns="http://www.w3.org/2000/svg" width="256" height="256" viewBox="0 0 256 256"><title>icon</title><circle cx="128" cy="128" r="124" fill="#c2bfbc"/><path d="M26.2,122.3L56,102.1v6.3L31.9,124.6V125L56,141.2v6.3L26.2,127.3v-5Z" fill="#333" stroke="#333" stroke-linecap="round" stroke-linejoin="round" stroke-width="3"/><path d="M68.8,140.3a25.3,25.3,0,0,0,16.1,5.3c7,0,10.4-2.7,10.4-6.1s-3.1-5.2-12.6-7.5c-8-2-14.8-5.5-14.8-11s5.6-11,16.3-11a29.1,29.1,0,0,1,15.6,5l-3.2,4.2A21.5,21.5,0,0,0,84.2,115c-7.3,0-9.6,2.6-9.6,5.6s4.8,5.1,11.8,6.9c10.5,2.6,15.5,5.7,15.5,11.6s-6.2,11.6-17.3,11.6a33.9,33.9,0,0,1-19-6.1Z" fill="#333" stroke="#333" stroke-linecap="round" stroke-linejoin="round" stroke-width="3"/><path d="M108.3,110.9h6.6l9,22.1c1.6,3.9,3,7.8,4.4,11.4h0.3c1.4-3.7,2.6-7.5,4.2-11.4l9-22.1h6.3l-16.1,38.9h-7.4Z" fill="#333" stroke="#333" stroke-linecap="round" stroke-linejoin="round" stroke-width="3"/><path d="M159.4,148.2v-0.3a7,7,0,0,1-4-6.4c0-2.5,1.7-5.3,4.6-7.3v-0.3a12.4,12.4,0,0,1-4.8-10.1c0-8.5,7-13.9,15.3-13.9a15.8,15.8,0,0,1,5.8,1h16.1v5H182a11.9,11.9,0,0,1,3.6,8.2c0,8.3-6.6,13.4-15,13.4A16.8,16.8,0,0,1,164,136c-1.9,1.2-3,2.6-3,4.5s3,4.5,8.1,4.5h8.7c10,0,14.8,2.6,14.8,9.1s-8.4,13.6-21.6,13.6c-11.4,0-17.9-3.9-17.9-10.8C153,153.8,155.2,150.6,159.4,148.2Zm12,14.9c9,0,14.6-4,14.6-8s-3-4.7-8.9-4.7h-7.6a22,22,0,0,1-5.9-.6c-3.7,2-5,4.2-5,6.5C158.7,160.3,163.1,163.1,171.4,163.1Zm8.1-39.3a9,9,0,1,0-9,9.2A8.8,8.8,0,0,0,179.5,123.8Z" fill="#333" stroke="#333" stroke-linecap="round" stroke-linejoin="round" stroke-width="3"/><path d="M229.8,127.3L200,147.5v-6.3L224.1,125v-0.3L200,108.4v-6.3l29.8,20.2v5Z" fill="#333" stroke="#333" stroke-linecap="round" stroke-linejoin="round" stroke-width="3"/></svg>