<svg id="Layer_1" xmlns="http://www.w3.org/2000/svg" width="256" height="256" viewBox="0 0 256 256"><style>.st0{fill:#C2BFBC;} .st1{fill:#333333;stroke:#333333;stroke-width:3;stroke-linecap:round;stroke-linejoin:round;stroke-miterlimit:10;}</style><circle class="st0" cx="128" cy="128" r="124"/><path class="st1" d="M91.8 103.3c-5.8-4.5-10.4-7.4-19-7.4s-14.3 4.1-14.3 10.8c0 14.3 41.2 11.5 41.2 35.2 0 11.1-9.2 19.2-22.8 20.6v18.9h-7.8v-18.8c-9.6-.8-18.8-5.1-24.7-10.1l5.1-7.4c6.5 4.7 14.4 8.8 24.1 8.8 10.2 0 15.7-4.7 15.7-11.3 0-16.1-41.1-13.2-41.1-35.8 0-10.9 8.4-18.3 21-19.6V70.3H77v17c9.5.8 15.4 4.8 20.6 9.8l-5.8 6.2zM121.1 131.2c0-25 11.1-44.8 29.2-58.8l5.8 5.4c-17.4 14.6-25.4 31.6-25.4 53.4 0 21.8 8 38.7 25.4 53.4l-5.8 5.4c-18.1-14-29.2-33.8-29.2-58.8zM174.7 184.6c17.4-14.6 25.4-31.6 25.4-53.4 0-21.8-8-38.7-25.4-53.4l5.8-5.4c18 14 29.2 33.8 29.2 58.8S198.6 176 180.6 190l-5.9-5.4z"/></svg>