<svg xmlns="http://www.w3.org/2000/svg" width="256" height="256" viewBox="0 0 256 256"><title>javascript</title><circle cx="128" cy="128" r="124" fill="#c2bfbc"/><path d="M67.2,146.9c5.8,0,10.5,4.4,10.5,11S73,168.8,67.2,168.8s-10.5-4.4-10.5-10.9S61.4,146.9,67.2,146.9Z" fill="#333" stroke="#333" stroke-linecap="round" stroke-linejoin="round" stroke-width="3"/><path d="M87.5,104.3h39.9v64.5c0,15.5-6.1,26.6-26.4,26.6a41.9,41.9,0,0,1-18-4.3l3.5-7.9a33.6,33.6,0,0,0,14.4,3.5c12.6,0,15.9-6.3,15.9-17.1V112.9H87.5v-8.7Zm24.9-21.1c0-5.1,3.6-8.3,8.6-8.3s8.6,3.2,8.6,8.3-3.8,8.2-8.6,8.2S112.3,88.1,112.3,83.1Z" fill="#333" stroke="#333" stroke-linecap="round" stroke-linejoin="round" stroke-width="3"/><path d="M154.4,151.9a41,41,0,0,0,26,8.6c11.3,0,16.8-4.4,16.8-9.8s-5.1-8.4-20.5-12.2c-13-3.2-24-8.9-24-17.9s9.1-17.9,26.4-17.9a47.2,47.2,0,0,1,25.3,8l-5.2,6.9a34.8,34.8,0,0,0-20.1-6.6c-11.8,0-15.5,4.1-15.5,9.1s7.8,8.3,19.2,11.1c17,4.3,25.1,9.2,25.1,18.8s-10,18.8-28,18.8a54.9,54.9,0,0,1-30.8-9.8Z" fill="#333" stroke="#333" stroke-linecap="round" stroke-linejoin="round" stroke-width="3"/></svg>