<svg id="Layer_1" xmlns="http://www.w3.org/2000/svg" width="256" height="256" viewBox="0 0 256 256"><style>.st0{fill:#C2BFBC;} .st1{fill:#333333;stroke:#333333;stroke-width:3;stroke-linecap:round;stroke-linejoin:round;stroke-miterlimit:10;}</style><circle class="st0" cx="128" cy="128" r="124"/><path class="st1" d="M88.8 158.4v8.8H33.1v-8.8h23.5V97.5H38.9v-6.9c8.8-1.3 15.2-3.4 20.3-6.1h7.9v73.9h21.7zM149.4 98.4c-4.3-4-10.2-6.5-16.5-6.5-13.2 0-24.9 8.9-25.3 35.5 6.6-6.6 15.2-10.8 23.5-10.8 15.3 0 25.8 8.6 25.8 25.5 0 15.8-12.8 26.6-27.6 26.6-18 0-31.6-13.2-31.6-39.8 0-33.2 16.6-46 34.6-46 10.1 0 17.6 3.8 23.1 8.8l-6 6.7zm-2.6 43.8c0-11.3-6.2-17.5-17.6-17.5-6.5 0-14.1 3.1-21.1 11.1 1.6 15.9 9.2 24.5 21.2 24.5 9.9.1 17.5-7.2 17.5-18.1zM171.1 147.7l20-20.6-20-20.5 5.7-5.8 20 20.6 20-20.6 5.7 5.8-20 20.5 20 20.6-5.7 5.8-20-20.7-20 20.7-5.7-5.8z"/></svg>