<svg xmlns="http://www.w3.org/2000/svg" width="256" height="256" viewBox="0 0 256 256"><style type="text/css">.st0{fill:#C2BFBC;} .st1{fill:#333333;stroke:#333333;stroke-width:3;stroke-linecap:round;stroke-linejoin:round;stroke-miterlimit:10;}</style><circle class="st0" cx="128" cy="128" r="124"/><path class="st1" d="M60.6 146.9c5.8 0 10.5 4.4 10.5 11 0 6.5-4.7 10.9-10.5 10.9s-10.5-4.4-10.5-10.9c0-6.6 4.6-11 10.5-11zM101.8 140.8h-10.3v-7.4h11.1l2.5-19.2h-11v-7.5h11.8l3.1-23.7h6.9l-3 23.7h17.1l3.1-23.7h6.9l-3 23.7h10.5v7.5h-11.3l-2.5 19.2h11.1v7.4h-12.1l-3.1 26.4h-7l3.2-26.4h-17.2l-3.1 26.4h-7l3.3-26.4zm25-7.4l2.5-19.2h-17.3l-2.3 19.2h17.1zM183.1 131.1h-23.6v-8h23.6v-25.3h8.6v25.2h23.6v8h-23.6v25.3h-8.6v-25.2z"/></svg>