<svg id="Layer_1" xmlns="http://www.w3.org/2000/svg" width="256" height="256" viewBox="0 0 256 256"><style>.st0{fill:#C2BFBC;} .st1{fill:#333333;stroke:#333333;stroke-width:3;stroke-linecap:round;stroke-linejoin:round;stroke-miterlimit:10;}</style><circle class="st0" cx="128" cy="128" r="124"/><path class="st1" d="M39.3 92.4h18.2c22.6 0 34.7 13.3 34.7 37 0 23.8-12.1 37.7-34.2 37.7H39.3V92.4zM57 159.5c17 0 25.4-11.1 25.4-30 0-18.8-8.4-29.3-25.4-29.3h-8.2v59.3H57zM104.5 92.4h9.7l24.3 47.2 7.5 15.3h.2c-.3-7.4-1.3-15.8-1.3-23.7V92.4h9v74.8h-9.7L120 120l-7.5-15.3h-.2c.3 7.6 1.3 15.6 1.3 23.4v39.1h-9V92.4zM171.3 150.9c5.6 5.6 13.3 9.3 21.5 9.3 10.6 0 16.6-4.9 16.6-12.2 0-7.6-5.8-10-13.5-13.2l-10.7-4.7c-7.5-3-16.2-8.3-16.2-19.3 0-11.4 10.3-19.8 24.5-19.8 9.3 0 17.6 3.8 23 9.2l-5 6.2c-4.9-4.3-10.6-7.1-18-7.1-9 0-14.8 4.2-14.8 10.9 0 7.2 7 9.8 13.3 12.4l10.5 4.6c9.2 3.8 16.5 8.9 16.5 19.9 0 11.9-10 21.3-26.4 21.3-10.9 0-20.4-4.3-27.1-11.1l5.8-6.4z"/></svg>