<svg xmlns="http://www.w3.org/2000/svg" width="256" height="256" viewBox="0 0 256 256"><circle cx="128" cy="128" r="124" fill="#c2bfbc"/><path fill="#333" stroke="#333" stroke-linecap="round" stroke-linejoin="round" stroke-width="3" d="M57.3 146.9c5.8 0 10.5 4.4 10.5 11s-4.7 10.9-10.5 10.9-10.5-4.4-10.5-10.9 4.7-11 10.5-11zm37.4 3.6c5.4 4.9 12.2 9.5 23.3 9.5s21-7.4 21-18.9-8-18.1-20.3-18.1c-6.9 0-11 1.8-16.8 5.1l-5.7-3.6 2.7-39.8h46.8v9.2h-37.4l-2.2 24.5a35 35 0 0 1 15.3-3.4c15.8 0 28.4 8 28.4 25.9s-14.8 28-30.6 28-23.5-5.6-29.8-11.3zm71.6 1.4a41 41 0 0 0 26 8.6c11.3 0 16.8-4.4 16.8-9.8s-5.1-8.4-20.5-12.2c-13-3.2-24-8.9-24-17.9s9.1-17.9 26.4-17.9a47.2 47.2 0 0 1 25.3 8l-5.2 6.9A34.8 34.8 0 0 0 191 111c-11.8 0-15.5 4.1-15.5 9.1s7.8 8.3 19.2 11.1c17 4.3 25.1 9.2 25.1 18.8s-10 18.8-28 18.8A54.9 54.9 0 0 1 161 159z"/></svg>