<svg xmlns="http://www.w3.org/2000/svg" width="256" height="256" viewBox="0 0 256 256"><circle cx="128" cy="128" r="124" fill="#c2bfbc"/><path fill="#333" stroke="#333" stroke-linecap="round" stroke-linejoin="round" stroke-width="3" d="M23.6 115.4h7.1l9.6 23.8c1.8 4.2 3.3 8.3 4.8 12.3h.3c1.5-4 2.8-8.1 4.6-12.3l9.6-23.8h6.8l-17.3 41.8h-7.9zm80.3 15.3c-.2-5.6-3-10.5-11.1-10.5-5.4 0-10.8 2.6-14.6 5l-2.8-4.8c4.2-2.7 11.3-6 18.6-6 11.4 0 16.9 6.8 16.9 17.2v25.6h-5.7l-.6-5.7h-.3c-4.6 3.7-10.6 6.8-16.5 6.8-7.8 0-14.2-4.4-14.2-11.9 0-9.4 8.7-13.9 30.3-15.7zm-14.2 21.9c4.7 0 9.5-2.3 14.2-6.2v-11c-17.9 1.4-23.4 5-23.4 10.5s4.4 6.7 9.2 6.7zm36.2-37.2h5.9l.6 9.9h.2c4.4-6.7 10.9-10.9 18.7-10.9a17.3 17.3 0 0 1 8.2 1.7l-1.5 6.1a20.4 20.4 0 0 0-7.8-1.4c-6.3 0-12.2 3.2-17.2 11.9v24.5h-7.1zm46.2 17.9c0-16.6 7.4-29.7 19.4-39l3.8 3.6c-11.5 9.7-16.8 21-16.8 35.4s5.3 25.7 16.8 35.4l-3.8 3.7c-12-9.3-19.4-22.5-19.4-39.1zm35.6 35.4c11.5-9.7 16.9-20.9 16.9-35.4s-5.4-25.7-16.9-35.4l3.9-3.6c11.9 9.3 19.3 22.4 19.3 39s-7.4 29.8-19.3 39.1z"/></svg>