<svg xmlns="http://www.w3.org/2000/svg" width="256" height="256" viewBox="0 0 256 256"><style type="text/css">.st0{fill:#C2BFBC;} .st1{fill:#333333;}</style><circle class="st0" cx="128" cy="128" r="124"/><path class="st1" d="M161.1 95.8c-1.2-.6-2.6-.5-3.7.2l-37.9 26.5c-.9.7-1.5 1.7-1.5 2.9v3.3c0 1.1.6 2.2 1.5 2.9l37.8 26.5c.6.4 1.3.6 2 .6.6 0 1.2-.1 1.7-.4 1.2-.6 1.9-1.8 1.9-3.1v-3.8c0-1.1-.6-2.2-1.5-2.9l-30.7-21.6 30.7-21.6c.9-.7 1.5-1.7 1.5-2.9v-3.8c.1-1-.7-2.2-1.8-2.8zM198 100.5c4.4 0 7.7-3.4 7.7-7.9s-3.3-7.9-7.7-7.9-7.7 3.4-7.7 7.9 3.3 7.9 7.7 7.9zM200.7 106h-28.8c-1.9 0-3.8 1.8-3.8 3.7v2.9c0 1.9 1.9 3.3 3.8 3.3h22.1v43.7c0 1.9 1.6 3.3 3.5 3.3h3.1c1.9 0 3.3-1.4 3.3-3.3v-49.9c.1-1.9-1.3-3.7-3.2-3.7zM78.4 113.1c-.4-.5-1-1.1-1.6-1.1h-7.4c-.8 0-1.4.7-1.8 1.4-.3.7-.3 1.6.2 2.2l13.1 18.1-13 18.1c-.4.6-.5 1.4-.2 2.1s1 1.1 1.8 1.1h7.3c.6 0 1.2-.3 1.6-.8l13.9-19.2c.5-.7.5-1.8 0-2.5l-13.9-19.4zM75.3 132.7l-13.9-19.5c-.4-.5-1-1.1-1.6-1.1h-7.4c-.8 0-1.4.7-1.8 1.4-.3.7-.3 1.6.2 2.2l13.1 18.1-13 18.1c-.4.6-.5 1.4-.2 2.1s1 1.1 1.8 1.1h7.3c.6 0 1.2-.3 1.6-.8l13.9-19.3c.5-.7.5-1.6 0-2.3z"/></svg>