<svg id="Layer_1" data-name="Layer 1" xmlns="http://www.w3.org/2000/svg" width="256" height="256" viewBox="0 0 256 256"><title>icon</title><circle cx="128" cy="128" r="124" fill="#c2bfbc"/><path d="M30,106.7h6.2V127H56.5V106.7h6.2v48.5H56.5V132.4H36.2v22.9H30Z" fill="#333" stroke="#333" stroke-linecap="round" stroke-linejoin="round" stroke-width="3"/><path d="M85.3,111.9h-16v-5.2h38.2v5.2h-16v43.4H85.3Z" fill="#333" stroke="#333" stroke-linecap="round" stroke-linejoin="round" stroke-width="3"/><path d="M128.8,111.9h-16v-5.2H151v5.2H135v43.4h-6.2Z" fill="#333" stroke="#333" stroke-linecap="round" stroke-linejoin="round" stroke-width="3"/><path d="M158.3,106.7h14.9c10.7,0,17.9,3.6,17.9,14.3s-7.3,15-17.9,15h-8.7v19.2h-6.1ZM172.4,131c8.5,0,12.6-3.1,12.6-10s-4.1-9.3-12.6-9.3h-7.9V131Z" fill="#333" stroke="#333" stroke-linecap="round" stroke-linejoin="round" stroke-width="3"/><path d="M200.1,144.6a20.1,20.1,0,0,0,14,6.1c6.9,0,10.8-3.2,10.8-7.9s-3.8-6.5-8.7-8.6l-7-3c-4.9-1.9-10.5-5.4-10.5-12.5s6.7-12.9,15.9-12.9a21.2,21.2,0,0,1,14.9,6l-3.3,4a17,17,0,0,0-11.7-4.6c-5.8,0-9.6,2.7-9.6,7.1s4.5,6.4,8.7,8.1l6.8,3c6,2.4,10.7,5.8,10.7,13s-6.5,13.8-17.2,13.8a24.7,24.7,0,0,1-17.6-7.2Z" fill="#333" stroke="#333" stroke-linecap="round" stroke-linejoin="round" stroke-width="3"/></svg>