<svg xmlns="http://www.w3.org/2000/svg" width="256" height="256" viewBox="0 0 256 256"><title>icon</title><circle cx="128" cy="128" r="124" fill="#c2bfbc"/><path d="M74.4,174.4l36.1-37.1,6.5,5.9-32.9,40ZM99.6,78.6H83.5V70.4c8.7-1.4,13.2-3.2,18.5-6.5H112V124H99.6Zm31.9,103.9c20.5-15.6,31.7-24.8,31.7-33.5,0-7.1-4.3-11.6-12-11.6-5.3,0-10.2,3.3-14,8.3l-7.7-6.5c5.7-6.9,13.8-12,23.3-12,14.2,0,22.9,7.3,22.9,20.3,0,10.6-10.8,19.9-23.8,31.7h26.8v10.4H131.5Zm50.1-107-36.1,37.1-6.5-5.9,32.9-40Z" fill="#333" stroke="#333" stroke-linecap="round" stroke-linejoin="round" stroke-width="3"/></svg>