<svg xmlns="http://www.w3.org/2000/svg" width="256" height="256" viewBox="0 0 256 256"><circle cx="128" cy="128" r="124" fill="#c2bfbc"/><path fill="#333" stroke="#333" stroke-linecap="round" stroke-linejoin="round" stroke-width="3" d="M37.2 94.8h9.6l11.7 38.9c2.5 8.6 4.3 15.4 6.9 23.9h.5c2.6-8.5 4.5-15.3 6.9-23.9l11.6-38.9h9.3l-22.9 72.1H60.2zm60.5 35.7c0-23.1 11.5-37.1 27.8-37.1s27.7 14.1 27.7 37.1-11.5 37.7-27.7 37.7-27.8-14.5-27.8-37.7zm46 0c0-17.9-7.2-29-18.2-29s-18.3 11.1-18.3 29 7.3 29.7 18.3 29.7 18.2-11.7 18.2-29.7zm77.9 8.9l-30 29.2-4.7-5.1 22.1-20.6h-48.2v-7.4H209l-22.1-20.6 4.7-5.1 30 29.2z"/></svg>