<svg xmlns="http://www.w3.org/2000/svg" width="256" height="256" viewBox="0 0 256 256"><style type="text/css">.st0{fill:#C2BFBC;} .st1{fill:#333333;stroke:#333333;stroke-width:3;stroke-linecap:round;stroke-linejoin:round;stroke-miterlimit:10;}</style><circle class="st0" cx="128" cy="128" r="124"/><path class="st1" d="M68.5 125.7c-.2-6.1-3.2-11.2-11.9-11.2-5.8 0-11.5 2.8-15.6 5.3l-2.9-5.2c4.5-2.9 12.1-6.4 19.9-6.4 12.2 0 18.1 7.3 18.1 18.4v27.4h-6.2l-.6-6.1h-.3c-5 3.9-11.3 7.2-17.7 7.2-8.4 0-15.2-4.7-15.2-12.7 0-10 9.3-14.9 32.4-16.7zm-15.2 23.4c5.1 0 10.1-2.4 15.2-6.6v-11.8c-19.1 1.6-25 5.3-25 11.2-.1 5 4.6 7.2 9.8 7.2zM126.8 147.8v6.3h-39.6v-6.3h16.7v-43.2h-12.5v-4.9c6.3-.9 10.8-2.4 14.4-4.3h5.6v52.4h15.4zM176.5 147.8v6.3h-39.5v-6.3h16.7v-43.2h-12.5v-4.9c6.3-.9 10.8-2.4 14.4-4.3h5.6v52.4h15.3zM184 167c6.3 0 10-4 12.2-9.6l1.4-3.3-20.9-44.8h7.6l10.9 24.7c1.7 4 3.7 8.6 5.5 13h.4c1.6-4.2 3.3-8.9 4.8-13l9.8-24.7h7.2l-19.7 48.4c-3.3 8.8-8.8 15.5-19 15.5-2.1 0-4.3-.4-5.9-.9l1.6-6c1.2.4 2.7.7 4.1.7z"/></svg>