<svg xmlns="http://www.w3.org/2000/svg" width="256" height="256" viewBox="0 0 256 256"><title>icon</title><circle cx="128" cy="128" r="124" fill="#c2bfbc"/><path d="M45,107.6h6.4l.7,6.4h.3c2.4-4.5,5.4-7.6,10.9-7.6s8,2.8,9.2,8.4c2.9-5.1,6.1-8.4,11.5-8.4s10.6,5.3,10.6,15v34.8H86.7V122.1c0-5.7-1.7-8.6-5.3-8.6s-5.8,2.5-8.3,7.5v35.2H66.5V122.1c0-5.7-1.9-8.6-5.5-8.6s-5.6,2.5-8.1,7.5v35.2H45Z" fill="#333" stroke="#333" stroke-linecap="round" stroke-linejoin="round" stroke-width="3"/><path d="M129.1,106.4c12.8,0,24,9.3,24,25.6s-11.2,25.4-24,25.4-24-9.3-24-25.4S116.3,106.4,129.1,106.4Zm0,44.2c9.3,0,15.5-7.5,15.5-18.6s-6.2-18.8-15.5-18.8-15.5,7.6-15.5,18.8S119.8,150.6,129.1,150.6Z" fill="#333" stroke="#333" stroke-linecap="round" stroke-linejoin="round" stroke-width="3"/><path d="M185.1,106.4c5.9,0,10.2,2.4,14.7,6.3l-.3-9V85h8.2v71.2h-6.8l-.7-6.4h-.3c-4,4.1-9.8,7.6-15.8,7.6-12.7,0-21.1-9.2-21.1-25.4S173.6,106.4,185.1,106.4Zm.7,44.1c4.8,0,9.4-2.5,13.7-7.3V119c-4.4-4.1-8.6-5.7-12.8-5.7-8.4,0-15.2,7.5-15.2,18.6S176.8,150.5,185.8,150.5Z" fill="#333" stroke="#333" stroke-linecap="round" stroke-linejoin="round" stroke-width="3"/></svg>