<svg xmlns="http://www.w3.org/2000/svg" width="1000" height="617" viewBox="0 0 1000 617"><title>question-7</title><rect x="1.7" y="1.7" width="996.7" height="614.17" fill="#e2e2e2" stroke="#666" stroke-miterlimit="10" stroke-width="10"/><line x2="1000" y2="617.5" fill="none" stroke="#666" stroke-miterlimit="10" stroke-width="4"/><line x1="1000" y2="617.5" fill="none" stroke="#666" stroke-miterlimit="10" stroke-width="4"/><rect x="382.3" y="503" width="587.7" height="84" rx="26.5" ry="26.5" opacity="0.5"/><path d="M593.3,527a12.5,12.5,0,0,1,8.9,3.9l-3.1,3.4a7.8,7.8,0,0,0-5.8-2.5c-5.2,0-8.8,4.3-8.8,11.3s3.6,11.4,8.9,11.4a8.1,8.1,0,0,0,6.3-3.1l3.1,3.4a12.3,12.3,0,0,1-9.6,4.5c-8,0-14.3-5.7-14.3-16.1S585,527,593.3,527Z" fill="#fff"/><path d="M624.1,543.8c-.2-2.6-1.8-4.6-5.6-4.6s-5.2,1.1-7.7,2.5l-2-3.7a21.7,21.7,0,0,1,10.7-3.2c6.5,0,10.1,3.6,10.1,10.1v13.9h-4.5l-.4-2.9h-.1c-2.5,1.9-5.6,3.5-8.8,3.5s-7.8-2.8-7.8-6.9S612.6,544.6,624.1,543.8Zm-6.7,11.3c2.3,0,4.5-1.1,6.7-2.9v-5c-8.4.6-10.9,2.3-10.9,4.8S615.1,555.1,617.4,555.1Z" fill="#fff"/><path d="M642.6,560.7v7.3h-5.5V535.4h4.5l.4,2.7h.1a11.6,11.6,0,0,1,7.5-3.2c6.1,0,9.6,4.7,9.6,11.9s-5,12.6-10.4,12.6a9.8,9.8,0,0,1-6.4-2.8Zm5.1-5.9c3.3,0,5.9-2.8,5.9-8.1s-1.6-7.4-5.4-7.4c-1.8,0-3.6.9-5.5,2.8v10.5A7.8,7.8,0,0,0,647.7,554.9Z" fill="#fff"/><path d="M670.9,539.7h-6.3v-4.1l6.5-.2.7-6.4h4.5v6.4H687v4.3H676.4v9.6c0,3.9,1.4,5.6,5.4,5.6a14.4,14.4,0,0,0,5.2-1l1,4a23.4,23.4,0,0,1-7.5,1.3c-7.1,0-9.5-4-9.5-10Z" fill="#fff"/><path d="M694.5,535.4h15.7v23.4h-5.5V539.7H694.5Zm8.6-7.8a3.9,3.9,0,0,1,7.8,0,3.9,3.9,0,0,1-7.8,0Z" fill="#fff"/><path d="M733.4,534.8c6.2,0,11.8,4.5,11.8,12.3s-5.6,12.3-11.8,12.3-11.8-4.5-11.8-12.3S727.2,534.8,733.4,534.8Zm0,20.1c3.8,0,6.1-3.1,6.1-7.8s-2.3-7.8-6.1-7.8-6.1,3.1-6.1,7.8S729.6,554.9,733.4,554.9Z" fill="#fff"/><path d="M751.6,535.4h4.5l.4,3.5h.2c2.2-2.2,4.9-4.1,8.4-4.1,5.4,0,7.9,3.4,7.9,9.5v14.5h-5.5V545c0-3.8-1.2-5.5-4.4-5.5s-3.9,1.1-6,3.3v16h-5.5Z" fill="#fff"/></svg>