<svg xmlns="http://www.w3.org/2000/svg" width="256" height="256" viewBox="0 0 256 256"><title>icon</title><circle cx="128" cy="128" r="124" fill="#c2bfbc"/><path d="M201.4,98.1s-1.5-10.3-6-14.9-12.1-6-15-6.3c-21-1.5-52.4-1.5-52.4-1.5H128s-31.4,0-52.4,1.5c-2.9.3-9.3.4-15,6.3s-6,14.9-6,14.9a226.5,226.5,0,0,0-1.5,24.2v11.4a226.5,226.5,0,0,0,1.5,24.2s1.5,10.3,6,14.9,13.2,5.8,16.5,6.4c12,1.1,50.9,1.5,50.9,1.5s31.5,0,52.4-1.6c2.9-.3,9.3-.4,15-6.3s6-14.9,6-14.9a226.8,226.8,0,0,0,1.5-24.2V122.3A226.8,226.8,0,0,0,201.4,98.1Zm-88.8,49.4V105.3L153,126.5Z" fill="#333"/></svg>